<?xml version="1.0" encoding="utf-8"?>
<!-- Generator: Adobe Illustrator 21.0.0, SVG Export Plug-In . SVG Version: 6.00 Build 0)  -->
<svg version="1.1" id="Layer_1" xmlns="http://www.w3.org/2000/svg" xmlns:xlink="http://www.w3.org/1999/xlink" x="0px" y="0px"
	 viewBox="0 0 672.1 411.2" style="enable-background:new 0 0 672.1 411.2;" xml:space="preserve">
<style type="text/css">
	.st0{fill:#1C1C1C;stroke:#282828;}
	.st1{fill:#FFFFFF;}
</style>
<g transform="scale(0.7462498747267652) translate(46.48249540498255, 0)">
	<path class="st0" d="M636.2,290.2l1.6-0.9l1.7-0.5l1.1-1l3.6-1.7l0.7-2.3l0.8-0.2l2.3-1.5l0-1.8l2-1.9l-0.1-1.6l0.3-0.4l5-4.1
		l4.8-6l0.1,0.6l1,0.5l0.3,1.4l1.3,0.7l0.7,0.8l1.5,0.1l2.1,1.1l1.4-0.1l0.8-0.4l0.8-1.2l1.2-0.6l0.5-1.4l2.7,1.5l1.4-1.1l2.2-1
		l0.8,0.1l1.1-1l0.3-0.8l-0.5-1l0.2-0.4l1.9,0.6l3.3-2.6l0.3-0.1l0.5,0.7l0.7-0.1l2.4-2.3l0.2-0.9l-0.5-0.5l1-1.1l0.1-0.6l-0.3-0.5
		l-1-0.5l0.7-3l2.6-4.8l0.5-2.1l0-1.9l1.6-2.6l-0.2-0.9l0.2-0.8l0.5-0.5l0.4-1.7v-3.2l1.2,0.2l1.2,1.7l3.8,0.4l0.6-0.3l1-2.5
		l0.2-2.4l0.7-1.1l0-1.6l0.8-2.3l1.8,0.8l0.7-0.2l1.3-3.3l0.6,0.1l0.6-0.4l0.5-1.2l0.8-0.7l0.4-1.8l1.4-2.4l-0.3-2.6l0.5-1.8l-0.3-2
		l9.2,4.6l0.6-0.3l0.6-4l2.6-0.1l0.6,0.6l1,0.2l-0.5,1.7l0.6,0.9l1.6,0.9l2.5,0l1,1.2l1.5,0.1l2.2,1.7v1.3l0.4,1.3l-1.7,1l-0.1,0.6
		l-0.6,0.1l-0.3,0.4l-0.5,5l-0.4,0.1l0,0.5l1.2,1l-0.3,0.1l0,0.8l2,0l2.4-1.4l0.5-0.7l0.3,0.7l-0.5,0.6l1.2,0.9l0.7,0.1l0.4,1.1
		l1.6,0.5l1.9-0.2l0.8,0.4l0.8-0.6l0.9,0l0.2,0.6l1.3,0.5l0.5,1.1l1.1-0.1l0,0.3l1.2,0.4l2.8,0.6l0.4,1l-0.8-0.4l-0.6,0.4l0.9,1.7
		l-0.3,0.6l0.6,0.8l-0.4,0.9l0.2,0.6l-1.4-0.4l-0.6-0.7l-0.7,0.2l-0.1,0.4l-2.4-2.3l-0.6,0.1l-0.4-0.6l-0.5,0.3l-1.5-1.3l-1.2-0.4
		l-0.4-0.6l-0.9-0.4l-0.7-1.3l-0.8-0.6l-1.3-0.1l-1.1-0.8l-1.2,0.1l-0.4,0.5l0.5,0.7l1.1,0l0.6,0.7l1.3,0.1l0.6,0.4l0.4,1.5l2.7,1.6
		l1.9,1.9l2,0.6l1.6,2.1l1,0.2l1.3-0.4l1.3,0.5l-0.6,0.7l0.3,0.5l2,0.3l0.3,0.7l0.5,0.1l0.3,2l-0.6-0.8l-0.5-0.2l-0.4,0.2l-1.1-1
		l-0.6,0.3l0.1,0.8l-0.3,0.7l0.7,0.7l-0.2,0.6l0.5,0.3l0.4-0.1l0.3,0.4l-1.4,0.7l-6.2-4.7l-0.6,0.1l-0.2,0.8l0.2,0.5l2.3,1.5
		l2.1,2.1l2.8,1.2l1.3-0.7l0.5,1.1l1.3,0.3l-0.4,0.7l0.3,0.6l0.9-0.2v1.2l-0.9,0.4l-0.6,0.7l-0.6-0.9l-3.1-1.3l-0.4-1.5l-0.6-0.6
		l-0.9-0.1l-1.2,0.7l-1.7-0.4l-0.4-1.1l-0.7-0.1l0,1.3l-0.3,0.4l-1.4-1.3l-0.5,0.1l-0.5,0.6l-0.6-0.4l-1,0.4l-2.2-0.1l-0.4,0.9
		l0.3,0.5l1.9,0.2l1.4-0.3l0.8,0.2l0.6-0.7l0.6,0.9l1.3,0.4l2-0.3l0.8,0.7l0.8,0.1l0.5-0.6l0.8,2.4l1.3,0.1l0.2,0.4l1.7,0.7l0.5,0.7
		l-0.6,1l0.6,0.4l1.7-1.3l0.9,0l0.8,0.6l0.8-0.3l-0.6-0.9V257l-0.5-0.3l4,0.1l0.9-0.7l2.1,3.5l-0.4,0.7l0.7,3.1l-1.2-0.6l0,0.9
		l-30.9,7.8l-37.2,8.4l-19.5,3.4l-11.8,1.2l-0.8,0.6L636.2,290.2L636.2,290.2z M735,223.7l0.1,0.1l-0.1,0.1v0L735,223.7L735,223.7z
		 M761.8,244.7l0.5-1.1l-0.6-0.6l0.6-1l-0.4-0.7l0-0.5l0.4-0.4l-0.2-0.7l0.6-0.3l0.2-0.6l0.1-2.3l1-0.4l-0.1-0.9l0.5-0.1l-0.3-1.5
		l-0.8-0.4l0.9-0.6l0.1-1l2.6-1l0.3,2.5l-1,2.1l-2.3,7.4l-0.6,1l0.2,1.1l-0.5,0.3l-0.3,1.1l0.2,4.3l-1.1-1.8l0.2-0.9L762,246l0.3-1
		L761.8,244.7L761.8,244.7z"/>
	<path class="st0" d="M670.3,160.1l0.6-0.2l4.3-3.7l1.1,5.2l0.5,0.3l34.8-7.9l34.3-8.6l1.4,0.6l0.7,1.4l0.6,0.1l0.8-0.3l1.2,0.6
		l0.1,0.9l0.8,0.4l-0.2,0.6l0.9,2.7l1.9,2.1l2.1,0.8l2.2-0.2l0.7,0.8l-0.9,0.9l-0.7,1.5l-0.2,2.2l-1.4,3.4l-1.4,1.6l0,0.8l1.8,1.7
		l-0.3,1.6l-0.8,0.4l-0.2,0.7l0.1,1.5l1,2.9l0.5,0.2l1.2-0.2l1.2,2.4l1,0.6l0.7-0.3l0.6,0.9l4.2,2.8l0.1,0.4l-1.3,0.9l-3.7,4.2
		l-0.2,0.8l0.2,0.9l-1.4,1.1l-0.8,0.1l-1.3,1.1l-0.3,0.7l-1.7-0.1l-2,0.8l-1.2,1.4l-0.4,1.4l-37.2,9.2l-39.1,8.7l-10-48.2l1.9-1.2
		L670.3,160.1L670.3,160.1z"/>
	<path class="st0" d="M525.6,341.2l0.9-0.8l0.3-1.4l1,0l0.7-0.8l-1-4.9l1.4-1.9l0.1-1.3l1.2-0.5l0.4-0.5l-0.6-1.3l0.6-1.2l-0.9-1.3
		l2.5-1.6l1.1-1.1l-0.1-0.8l-0.8-0.5l0.1-0.2l0.3-0.2l0.8,0.4l0.5-0.3l-0.3-1.3l-0.8-0.9l0.1-0.7l0.5-1.4l1-1.1l-1.3-2.1l1.4-0.2
		l0.6-0.5l-0.1-0.6l-1.2-0.8l0.8-0.1l0.6-0.5l0.1-0.7l-0.6-1.4l0-0.4l0.4,0.5l0.5,0.1l1.2-1.1l23.7-2.8l0.3-0.4l-0.1-1.3l-0.8-2.4
		l3-0.1l0.8,0.6l22.8-3.5l7.6-0.5l7.5-0.9l8.8-1.4l24-3.1l1.1-0.6l29.3-5.2l0.7-0.6l3.6-0.5l-0.4,1.4l0.4,0.9l-0.4,2l0.4,0.8l-1.2,0
		l-1.7,1.8l-1.2,3.9l-0.5,0.7l-0.6,0.1l-0.6-0.7l-1.4,0l-2.7,1.7l-1.4,2.7l-1,0.9l-0.3-0.3l-0.1-1l-0.7-0.5l-0.5,0.1l-2.3,1.8
		l-0.3,1.3l-0.9-0.2l-0.9,0.5l-0.2,0.8l0.3,0.7l-0.8,2.2l-1.3,0.1l-1.8,1.1l-1.9,2.3l-0.8,0.3l-2.3,2.5l-4,0.8l-2.6,1.7l-0.5,1.1
		l-0.9,0.5l-0.5,0.8l-0.2,2.9l-0.3,0.6l-1.7,0.5l-0.9-0.2l-1.1,1.1l0.2,5.2l-20.2,3.3l-21.6,3l-25.6,3l-0.3,0.3l-7.4,0.9
		L525.6,341.2L525.6,341.2z"/>
	<path class="st0" d="M646.9,248.5l4-1.5l0.3-0.7l0.1-2.8l1.2-0.2l0.4-0.6l-0.6-2.5l-0.6-1.2l0.5-0.6l0.4-2.8l0.7-1.7l0.5-0.4
		l1.2,0.6l0.4,0.7l-0.1,1.1l0.7,0.5l0.8-0.4l0.5-1.4l0.5,0.2l0.6-0.2l0.2-0.4l-0.6-2.1l-0.8-0.6l0.8-0.8l-0.3-1.7l0.7-2l1.7-0.5
		l0.2-1.6l1-1.4l0.4-0.1l0.7,0.8l0.7,0.2l2.3-1.6l1.5-1.6l0.8-1.8l2.5-2.7l0.4-2.4l-0.7-1l0.7-2.3l-0.2-0.8l0.6-0.6l-0.3-3.4
		l0.5-3.9l0.5-0.8l0.1-1.1L671,199l-0.4-0.3l0-2l-1.6-1.9l0.4-0.5l0.8-0.1l0.3-0.3l4,19.3l0.5,0.3l16.6-3.6l2.2,10.7l0.5,0.4
		l2.1-2.5l1-0.6l0.3-1l1.6-2l0.2-1.1l0.5-0.4l1.2,0.4l0.7-0.3l1.3-2.6l0.6-0.5l0-0.9l0.4,0.6l1.8,0.5l3.2-0.6l0.8-0.9l0.1-1.5l2-0.7
		l1-1.7l0.7-0.1l3.2,1.5l1.8-0.7l-0.5,1l0.6,0.9l1.3,0.4l0.1,1l1.1,0.4l0.1,1.2l0.3,0.4l-0.6,3.6l-9-4.5l-0.6,0.2l-0.3,1.1l0.4,1.6
		l-0.5,1.6l0.4,2.3l-1.4,2.4l-0.4,1.8l-0.7,0.5l-0.4,1.1l-0.3,0.2l-0.6-0.2l-0.4,0.3l-1.2,3.3l-1.8-0.8l-0.6,0.2l-0.9,2.8l0.1,1.5
		l-0.7,1.1l-0.2,2.3l-0.9,2.2l-3.2-0.4l-1.4-1.8l-1.7-0.2l-0.5,0.4l-0.3,2.2l0.2,1.3l-0.3,1.4l-0.5,0.4l-0.3,1l0.2,0.9l-1.6,2.4
		l0,2.1l-0.5,2l-2.6,4.7l-0.8,3.2l0.1,0.8l1.1,0.5l-1.1,1.4l0.1,0.6l0.5,0.4l-2.2,2.1l-0.5-0.7l-0.8,0.1l-3.1,2.5l-1-0.6l-1.3,0.3
		l-0.4,0.9l0.5,1.2l-0.9,0.9l-0.7,0l-2.3,1l-1.2,1l-2.2-1.4l-0.7,0l-0.8,1.6l-1.1,0.5l-1.2,1.5l-1.1,0.1l-2-1.1l-1.3,0l-0.6-0.7
		l-1.2-0.6l-0.3-1.3l-0.9-0.5l0.4-0.7l-0.3-0.8l-0.8-0.4l-0.8,0.2l-1.3-0.2l-1.3-1.2l-2.1-0.8l-0.8-1.4l-1.6-1.2l-0.7-1.5l-1-0.6
		l-0.1-1.1l-1.4-0.9l-2-2.3l0.7-2l-0.2-1.6L646.9,248.5L646.9,248.5z"/>
	<path class="st0" d="M93.3,329.3l-12.7-16.9L44,261.3l-25.3-34.5l13.7-64.2l46.9,9.2l47,7.7l-18.7,125.8l-0.9,1.2l-1,2.2l-0.4,0.2
		l-1.3-0.2l-1-2.2l-0.7-0.6l-1.4,0.2l-1.9-1l-1.6,0.2l-1.8,1l-0.8,2.5l0.9,2.6l-0.6,1l-0.2,1.3l0.4,3.1l-0.8,2.5l0.8,3.7L95,326
		l-0.3,1.1l-1,0.3l0.2,1.3L93.3,329.3L93.3,329.3z"/>
	<path class="st0" d="M230.1,412.7l33.1,2l32.8,1.4l0.4-0.4l3.6-98.7l25.9,0.6l26.3,0.2l0,42.1l0.4,0.4l1-0.1l0.8,0.3l3.7,3.8
		l1.7,0.2l0.9-0.6l2.5,0.6l0.6-0.7l0.1-1l0.6,0.8l0.9,0.2l0.4,0.9l0.8,0.8l0,1.6l0.5,0.8l2.9,0.4l1.2-0.2l1.4,0.9l2.8,0.7l1.8-0.6
		l0.6,0.1l1.9,1.8l1.4-0.1l1.2-1.4l2.4,0.3l1.7-0.5l0.1,2.3l0.9,0.7l1.6,0.4l0,2.1l1.6,0.8l1.8-0.7l1.6-1.7l1-0.6l0.4,0.2l0.5,1.6
		l2,0.2l0.2,1l0.7,0.5l1.5-0.2l0.9-0.9l0.4,0.3l0.6-0.1l0.6-1l0.3,0.4l-0.5,1.2l0.1,0.8l0.7,1.1l0.8,0.4l0.6,0l0.6-0.5l0.7-2.4
		l0.9-0.6l0.4-1.5l0.6-0.1l0.4,0.1l0.3,1l0.6,0.6l1.2,0l0.8,0.5l1.2-0.2l0.7-1.3l0.5,0.1l-0.1,0.7l0.5,0.7l1.2,0.5l0.5,0.7l1.5,0
		l1.5,1.7l0.5,0l0.6-0.6l0.1-0.7l1.5-0.1l0.9-1.4l1.9-0.4l1.7-1.1l1.5,0.8l1.5-0.2l0.3-0.8l2.3-0.7l0.5-0.5l0.5,0.3l0.4,0.9l1.8,0.4
		l1.7-0.1l1.9-1.1l0.4-1l1.1,0.3l2.2,1.6l1.2,0.2l1.8,2.1l2.1,0.4l1,0.9l0.8-0.1l2.5,0.9l1,0l0.4,0.8l1.4,1l1.5-0.1l0.4-0.7l0.8,0.4
		l0.9-0.4l0.9,0.4l0.8-0.1l0.6,0.4l2.2,34l1.5,1.7l1.3,0.8l1.2,1.9l0.6,1.6l-0.1,2.6l1,1.2l0.8,0.4l-0.1,0.9l0.8,0.5l0.3,0.9
		l0.7,0.7l-0.2,1.2l1,1l0.6,1.6l0.5,0.3l0.5-0.1l-0.2,1.7l0.8,1.2l-0.6,0.2l-0.3,0.7l0.8,1.3l-0.5,0.9l0.2,1.4l-0.8,2.7l-0.7,0.9
		l-0.4,1.5l-0.8,1.1l0.6,2l-0.8,2.3l0.2,1.1l0.8,1.2l-0.2,1l0.5,1.6l-0.2,1.4l-1.2,1.8l-1.2,0.4l-1.2,2.7l0,2.1l1.4,1.7l-3.4,0.1
		l-7.4,3.8l0-0.4l-0.7-0.2l-0.2,0.2l-0.8-0.4l-3.4,1.1l0.6-1.3l0.4-2l-0.3-1.4l-0.8-0.8l-1.8,0.2l-1.2,2.6l-0.4,0.1l-0.4-0.6
		l-2.4-1.2l-0.4,0.3l-0.2,0.8l0.2,0.5l1.1,0.4l-0.3,0.8l0.5,0.8l-0.5,0.6l0,1l1.5,0.8l-0.4,0.5l0.5,1.1l0.9,0.2l0.3,0.4l-0.4,1.2
		l-0.5-0.1l-1,0.8l-1.7,2.2L445,475l-0.5,0.1l0.3,1l0.1,2.5l-1.9,1.5l-1.9,2.1l-1,0.4l-4.1,2.9l-3.3,0.4l-2.5,1.1l-0.2,1.1l-0.8-0.3
		l-2,0.9l-0.3-0.3l-1.1,0.2l0.4-0.9l-0.5-0.6l-1.4,0.2l-1.2,1.1l-0.6-0.6l-0.1-1.2l-1.4-0.8l-0.5,0.4l0.6,1.4l0,1.1l-0.7,0.1
		l-0.5-0.4h-0.8l-0.5-1.3l-1.5-0.4l-0.6,0.4l0,0.5l0.9,1.7l0,1.2l0.6,0.4l0.4-0.2l1.1,0.8l-0.8,0.4l-0.1,0.9l0.7,0.2l1.1-0.5l1,0.6
		l-4.3,2.4l-0.6-0.1l-0.4-1.4l-0.5-0.2l-1.1-1.5l-0.5,0l-1,2l1.2,1.6l-0.3,1l0.3,0.9l-1.7,1.8l-0.4,0.2l0.4-0.6l-0.2-0.7l0.2-0.7
		l-0.5-0.7l-0.5,0.2l-0.7,1.1l0.3,0.7l-0.4,1l-0.1-1.1l-0.5-0.5l-2,1.3l-0.8-0.3l-0.7,0.5l0.1,0.8l-0.8,1l0,0.5l1.2,0.6l0,0.6
		l0.8,0.3l0.7-1.4l0.9-0.4l0,0.6l-2.8,4.4l-1.2-1l-1.4,0.4l-0.3-0.3l-2.4,0.4l-0.5-0.3l-0.6,0.2l-0.2,0.6l0.4,0.6l0.5,0.4l1.5,0
		l0.5,1.5l2.1,1l-2.7,7.6l-0.2,0.1l-0.4-0.5l-0.3,0.1l0.2-0.8l-0.6-0.4l-2.4,2l-1.7-2.3l-1.2-1l-0.6,0.4l0.1,0.5l1.4,2l-0.2,0.5
		l0.4,0.5l-1.2-0.2l-0.3,0.6l0.5,0.6l0.9,0.2l1.1-0.2l0.7,0.6l1.4,0.2l1,0l1-0.6l-0.3,1.6l0.2,0.8l-1,0.7l0.4,1.6l-1.1,0.1l-0.4,0.4
		l0.4,2.1l-0.3,1.6l0.5,0.6l0.8,0.2l0.9,2.9l0.7,2.8l-0.9,0.8l0.6,0.5l-0.1,1.3l0.7,0.3l0.2,0.6l0.6,0.3l0.4,1.8l0.7,0.3l0.5,3.2
		l1.5,0.6l-0.5,1.1l0.3,1.1l-0.6,0.8l-0.8,0l-0.5,0.4l0.1,1.3l-0.5-0.3l-0.5,0.2l-0.4-0.7l-1.5-0.5l-2.9-2.5l-2.2-0.2l-0.8-0.5
		l-4.2,0.1l-0.9,0.4l-0.8-0.6l-1.6,0.2l-2.1-0.9l-0.7-1l-0.6-0.1l-0.2-0.7l-1.2-0.5l-1,0l-2-0.9l-1.5,0.4l-0.8-1.1l-0.6-0.2
		l-1.4-1.4l-2,0l-1.5-0.6l-0.9,0.1l-1.6-0.4l0.4-0.9l-0.3-1l-1.1-0.7l0.3-0.3l-0.3-1.4l0.6-1.2l-0.4-0.7l0.9-0.4l0.1-0.5l-1-0.5
		l-0.9,0.7l-0.3-0.3l0-1.1l-0.6-0.8l0.3-0.1l0.5-1.4l-0.2-0.7l-0.7,0.1l-1,1l-0.6-0.9l-0.9-0.3l-0.3-1.3l-1.5-0.8l0.3-0.7l-0.2-0.8
		l0.3-2.2l-0.5-1l-1-1l0.6-2l0-1.2l-0.2-0.7l-0.5-0.3l-0.1-1.8l-1.9-1.4l-0.9,0.2l-0.3-0.4l-0.8-0.1l-0.7-1.3l-2.2-1.7l0-0.7
		l-0.5-0.6l0.1-0.9l-1-0.9l-0.1-0.8l-1.1-0.6l-1.3-2.9l-2.7-1.5l-0.4-0.9l-1.1-0.6l-0.1-1.2l-0.8-1.2l-0.6-2l0.4-0.2l0-0.7l-1-0.5
		l-0.3-1.3l-0.8-0.6l-0.9-1.7l-0.6-2.4l-1.9-2.4l-0.9-4.2l-1.8-1.3l0-0.7l-0.8-1.2l-4.1-2.8l-0.3-1.4l1.7,0l0.8-0.8l-0.3-0.4
		l-0.6-0.1l-0.1-0.7l0.1-0.9l0.6-0.7l-0.1-0.7l-0.5,0l-0.8,0.7l-0.5,0.7l0,0.7l-0.9,0.1l-0.4,1.1l-0.5,0l-1.8-1.7l0.1-0.7l-0.4-0.7
		l-0.8-0.2l-0.6,0.3l-0.3-0.5l-0.7-0.1l-0.9-2.2l-1.5-0.8l-0.9,0.3l-0.4-0.9l-0.6,0.1l-0.2,0.6l-1,0.2l-2.9-0.5l-0.4-0.4l-1.5,0
		L316,464l-0.8-0.4l-2.7,0.3l-2.4-1.1l-1.1-0.9l-0.7-0.1l-1,0.8l-0.6,1.6l-2-0.2l-0.5,0.4l-0.5-0.2l-2.5,0.8l-3.1,6.2l-0.2,1.8
		l-0.8,0.7l-0.4,1.8l0.4,0.6l-2,1l-0.8,1.3l-1.1,0.6l-0.6,0.8l-0.3,1.1l-2.9-0.3l-1-0.9l-0.5,0.3l-1.7-1.2l-1.3-1.6l-2.9-0.9l-1.1-1
		l0-0.7l-0.4-0.4l-2.8-0.5l-2.3-1l-1.9-1.8l-0.9-1.5l-1-0.9l-1.5-0.3l-1.8-1.3l-0.2-0.6l-1.1-1l-0.8-2.9l-0.9-1l-0.2-1.1l-0.8-1.3
		l-0.3-2.3l0.5-3l-3-5.1l-0.1-1.9l-1.3-2.5l-1-0.4l-0.4-1.2l-1.4-0.8l-2.1-2.2l-1-0.1l-2-1.2l-3.2-3.4l-0.6-1.5l-3.1-2.5l-1.6-2.5
		l-1.2-1l-0.6-1l-4.4-2.6l-2.4-5.4l-1.4-1.1l-1.1-0.1l-1.8-1.7L230.1,412.7L230.1,412.7z M455.9,468.3l-0.3,0.2l0.2-0.2L455.9,468.3
		L455.9,468.3z M452.5,470.9l-0.1,0.1l0,0L452.5,470.9L452.5,470.9z M421.4,489.3L421.4,489.3L421.4,489.3L421.4,489.3L421.4,489.3z
		 M407.8,547.3l0.8-0.5l0.2-0.7l0.1,1.1L407.8,547.3L407.8,547.3z"/>
	<path class="st0" d="M783.7,105.6l0.2-1.3l-1.4-5.4l0.5-1.4l-0.3-2.2l1-1.9l-0.1-2.3l0.6-2.3l-0.4-0.6l0.3-2.3l-0.9-3.8l0.1-0.7
		l0.3-0.4l1.8-0.8l0.7-1.4l1.4-1.6l0.7-1.8l-0.2-1.1l0.5-0.6l-2.3-3.5l0.9-3.3L787,66l-0.8-1.3l0.3-0.6l-0.2-0.7l0.5-3.2l-0.4-0.8
		l0.9-1.5l2.4,0.3l0.7-0.9l13,34.9l0.8,3.7l2.6,2.2l0.9,0.3l0.4,1.6l1.7,1.3v0.3l0.8,0.2l-0.1,0.6l-0.5,3.1l-1.6,0.2l-1.3,1.2
		l-0.5,0.9l-1,0.4l-0.5,1.7l-1.1,1.4l-17.6,4.7l-1.7-1.4l-0.4-0.9l-0.1-2l0.5-0.6l0-0.5L783.7,105.6L783.7,105.6z"/>
	<path class="st0" d="M775.8,168.8l-0.8-0.7l0.8-3.2l1-0.3l0.4-0.5l0.7,0.2l0.6-0.3l-0.1-0.6l0.4-0.1l0.3-0.7l0.7-0.3l-0.2-1.4
		l0.7-0.5l0.3,0.6l1-0.2l0.5-0.3l0-0.5l1.5-0.2l0.2-0.7l1.7,0l0.9-0.5l0.5-1.2l0.6,0.2l0.4-0.5l4.3-1.3l2.3-1.1l2.4-2.8l0.2,0.2
		l-2.5,3.4l0,0.5l0.6,0.4l1.6-0.3l0.3,0.6l-1.3,1.2l-2,0.5l-0.4,0.6l-1.2,0.4l0.2,0.4l-0.2,0.3l-0.7-0.2l-0.7,0.7l-1,0.2l-0.4,0.6
		l-1.4,0.4l-0.3,0.7l-1.3,0.2l-0.4,0.7l-1.3,1l-2.8,1.3l-1,0.9l-1,0.1l-0.3,0.9l-0.3,0l-0.3-0.7l-1.5-0.2l-0.9,0.7l0.1,1
		L775.8,168.8L775.8,168.8z M798.1,155.2l0.9-2.1l1.2-0.5l0.6-0.9l0.8,0.3l0.1-0.8l0.8,0.6l-3.8,3.7L798.1,155.2L798.1,155.2z
		 M799,149.3L799,149.3l0.2-0.1l-0.1,0.2L799,149.3z M675.9,155.7l3.8-3.9l1.3-2.2l1.8-1.9l1.2-0.8l1.3-3.4l2.1-2.1l-0.2-1.8
		l-1.6-2.4l0.4-1.1l-0.2-0.8l-0.8-0.5h-2.1l0-1l-0.6-2.2l5-2.9l4.5-1.8l2.4-0.2l1.8-0.7l5.6-0.2l3.1,1.2l3.2-1.7l5.5-1.1l0.6,0.4
		l0.7-0.2l0.1-1l3.2-1.8l0.7-2.1l1.9-1.8l0.8-1.3l1.1,0l1.1-0.5l1.1-1.6l-0.5-0.7l0.4-1.2l-0.2-0.5l-0.6,0l-0.2-1.2l-0.9-1.6l-1-0.6
		l0.1-0.2l0.6,0.4l0.5-0.3l0.8-1.4l0-0.9l0.8-0.6l0-1l-0.9-0.2l-0.6,0.7l-0.3,0.1l0.6-1.3l-0.8-0.6l-1.3,0.1l-0.9,0.8l-1-0.7l2-2.5
		l1.8-1.5l1.7-2.6l0.7-0.6l0.9-1.5l0.1-0.6l-0.5-0.9l0.8-1.9l4.8-7.6l4.8-4.5l2.8-0.5l19.6-5.7l0.4,0.9l-0.1,2l1,1.2l0.4,3.8
		l2.3,3.2l-0.1,1.9l0.8,2.4l-0.6,1.1V93l0.7,0.9l1.3,2.8l0.2,1.1l0.6,0.8l0.1,3.9l0.5,0.8l0.5,0.1l0.5-0.6l0.1-0.9l0.3-0.1l1,1.1
		l3.9,14.5l0.1,1.6l0.6,1.1l0.3,14.9l0.6,0.6l3.6,16.2l1.3,1.3l-2.8,3.2l0,0.5l1.7,1.6l-1.9,3.4l0.2,1.1l-1,0.4l-0.2-4.3l-0.6-2.2
		l-0.7-1.6l-1.5-1.1l-0.2-1.1l-0.7-0.1l-0.4,1.3l0.8,1.4l0.9,0.7l1,2.8l-13.7-4.1l-1.3-1.5l-2.4,0.2l-0.6-0.4l-1.1-0.1l-1.7-1.9
		l-0.8-2.3l0.1-0.7l-0.4-0.6l-0.6-0.2l0.1-0.5l-0.3-0.4l-1.6-0.7l-1.1,0.3l-0.5-1.2l-1.9-0.9l-34.6,8.7l-34.4,7.8L675.9,155.7
		L675.9,155.7z"/>
	<path class="st0" d="M759.4,72.9l26-8l0.9,1.8l-0.7,2.4l0,1.5l2.2,2.8l-0.5,0.6l0.3,1.1l-0.7,1.6l-1.3,1.5l-0.6,1.3l-1.7,0.7
		l-0.6,0.9l-0.1,1l0.9,3.7l-0.3,2.4l0.4,0.5l-0.6,2.1l0.2,2.2l-1,1.9l0.3,2.4l-0.5,1.5l1.4,5.4l-0.2,1.2l1,5.3l-0.6,0.8l0.1,2.3
		l0.6,1.3l1.5,1.1l-11.7,3.1l-4.3-16.8l-1.7-1.6l-0.9,0.2l-0.3,1.2l-0.1-0.3l-0.1-3.9l-0.7-1l-0.1-1l-1.4-2.8l-0.6-0.7l0-3.2
		l0.6-1.2l-0.9-2.6l0.1-1.9l-0.4-0.9l-1.5-1.6l-0.4-0.8l-0.4-3.7l-1-1.3l0.1-1.9L759.4,72.9L759.4,72.9z"/>
	<path class="st0" d="M184.8,423l11.8-123.6l25.7,2.2l26.1,1.9l26.1,1.5l25.7,1l-0.3,10.2l-0.7,0.4l-3.6,98.7l-32.4-1.3l-33.5-2
		l-0.4,0.8l0.5,2.3l0.4,1.3l1,0.8l-30.5-2.5l-0.4,0.4l-0.8,9.5L184.8,423L184.8,423z"/>
	<path class="st0" d="M630.5,321.9l0.9,0.2l1.5-0.4l0.4-0.4l0.5-1l0.1-2.7l1.3-1.2l0.5-1l2.2-1.5l2.1-0.5l0.8,0.2l1.3-0.5l2.4-2.5
		l0.8-0.2l1.8-2.3l1.5-1l1.5-0.2l1.2-2.6l-0.3-1.2l1.7,0.1l0.5-1.6l0.9-0.8l1.1-0.8l0.5,1.5l1.1,0.3l1.3-1.2l1.3-2.6l2.5-1.6
		l0.8,0.1l0.8,0.8l1.1-0.2l0.8-1.1l1.5-4.2l1.1-1.1l1.5,0.1l0.4-0.3l-0.7-1.3l0.4-2l-0.4-0.9l0.4-1.2l7.4-0.9l19.5-3.4l37.2-8.4
		l31.1-7.9l0.4,1.2l3.5,3.2l1,1.5l-1.2-1l-0.2-0.6l-0.9-0.4l-0.5,0l-0.2,0.6l0.7,0.5l0.6,1.6l-0.5,0l-0.9-0.8l-2.3-0.8l-0.4-0.5
		l-0.5,0.1l-0.3,0.7l0.1,0.6l1.4,0.4l1.7,1.4l-1.1,0.7l-2.5-1.2l-0.3,0.5l0.1,0.4l1.6,1.2l-1.8-0.3l-2.2-0.9l-0.5,0.1l0,0.5l0.6,0.7
		l1.7,0.8l-1,0.6v0.6l-0.4,0.5l-1.5,0.8l-0.9-0.8l-0.6,0.2l-0.1,0.4l-0.2-0.1l-1.3-2.3l0.2-2.6l-0.4-0.5l-0.9-0.2l-0.4,0.6l0.6,0.7
		l-0.4,1l0,1l0.5,1.7l1.6,2.2l-0.3,1.3l0.5,0.3l3-0.6l2.1-1.5l0.3,0l0.4,0.8l0.8-0.3l1.6,0l0.2-0.7l-0.6-0.3l1.3-0.8l2-0.5l-0.1,1.2
		l0.6,0.3l-0.6,0.9l0.9,1.2l-0.8,0.1l-0.2,0.7l1.4,0.5l0.3,0.9l-1.2,0l-0.2,0.7l0.7,0.6l1.2-0.2l0.5,0.3l0.4-0.4l0.2-2l-0.8-3.3
		l0.4-0.5l0.6,0.4l0.9,0.1l0.3-0.6l-0.3-0.4l0.5-0.6l1.7,1.8l0,1.4l0.6,0.9l-0.8,0.6l0.9,1.1l-0.1,0.4l-0.4,0.5l-0.8,0.1l-0.9-0.9
		l-0.3,0.3l0.1,1.3l-1.1,1.6l0.2,0.6l-0.3,0.2l-0.2,1l-0.7,0.5l0.1,0.9l-0.9,1l-1.1,0.2l-0.6-0.4l-0.5,0.5l-0.9-0.8l-0.9,0.1
		l-0.4-0.8l-0.6-0.2l-0.5,0.4l0.1,0.9l-0.5,0.2l-1.4-1.2l1.3-0.4l0.2-0.9l-0.6-0.4l-2,0.3l-1.1,1l0.3,0.7l0.4,0.2l-0.1,0.4l0.2,0.4
		l0.3,0.2l0,0.1l-0.6-0.3l-1.7,0.8l-1.1-0.4l-1.5,0.1l-3.3-0.7l0.4,1.1l1,0.5l0.4,0.6l1.5-0.2l4,1l3.5,0.1l0.5,0.4l-0.1,0.5l-1,0
		l-0.2,0.7l-1.6,1.4l0.3,0.6l1.8,0l-2.6,3.5l-1.7,0l-1.6-1L757,299l-1.2-1l-1.1,0.1l0.1,0.5l1,1.1l2.3,2.1l2.7,0.3l1.3,0.5l1.7-2.2
		l0.5,0.5l1.2,0.3l0.4-0.6l-0.5-0.9l0.9,0.2l0.2,0.6l0.7,0.2l1.6-1.2l-0.2,0.6l0.3,0.6l-0.3,0.4l-0.4-0.2l-0.4,0.4l0,0.9l-1,1.7
		l0,0.8l-0.7-0.1l-0.1-0.7l-1.1-0.6l-0.4,0.5l0.3,1.5l-0.5-1.1l-0.7-0.1l-1.2,1.1l-0.2,0.5l0.2,0.3l-2,0.3l-2.8,1.8l-0.7-1l-0.8-0.3
		l-0.4,0.5l0.4,1.3l-0.6,0l-0.1,0.8l-0.9,1.7l-0.9,0.8l-0.6-0.3l0.5-0.7l0-0.8l-1.1-0.9l-0.1-0.5l-1.7-0.4l-0.2,0.5l0.4,1.2l0.2,0.3
		l0.6,0.1l0.3,0.6l-0.9,0.4l-0.1,0.7l0.7,0.6l0.8,0.2l0,0.4l-2.1,1.7l-1.9,2.6l-2,4.3l-0.3,2.1l0.1,1.3l-0.2-1l-1-1.6l-0.5-0.2
		l-0.3,0.5l1.2,4l-0.6,2.3l-3.9,0.2l-1.4,0.6l-0.3-0.5l-0.6-0.2l-0.5,1.1l-1.9,1.1l-0.6,0l-23.2-15.4l-1,0l-18.7,3.5l-0.7-2.8
		l-3.2-2.8l-0.5,0.1l-1.2,1.3l0-1.3l-0.8-0.5l-22.8,3.3l-0.6-0.3l-0.6,0.5l-0.2,0.6l-4,1.9l-0.9,1.2l-1,0.1l-4.8,2.7l-21,3.9
		l-0.3-4.5L630.5,321.9L630.5,321.9z M770.8,271.6l0.2,0.4l0.2,0.4l-0.5-0.4L770.8,271.6z M761.3,290.4l0.2,0.3l-0.2-0.1
		L761.3,290.4L761.3,290.4z M769.1,299.3l0.2-0.4l0.2,0.1l-0.1,0.3L769.1,299.3L769.1,299.3z M766.5,299.2l-0.1-0.3l0-0.1l0.3,0.3
		L766.5,299.2L766.5,299.2z"/>
	<path class="st0" d="M392.4,43l2.1,6.9l-0.7,2.5l0.6,2.4l-0.3,1.2l0.5,2l0,3.3l1.4,3.9l0.5,0.5l-0.1,1l0.4,1.5l0.6,0.7l1.5,3.7
		l-0.1,3.9l0.4,0.7l0.5,8.3l0.5,1.5l0.5,0.2l-0.5,2.6l0.4,1.6l-0.1,1.8l0.7,1.1l0.2,2.2l0.5,1.1l1.8,2.6l0.1,2.2l0.5,1.1l0.2,1.4
		l-0.2,1.4l0.3,1.7l-27.9,0.7l-28.4,0.2l-28.4-0.4l-28.5-0.9l2.8-65.4l23.1,0.8l25.6,0.4l25.6-0.1L392.4,43L392.4,43z"/>
	<path class="st0" d="M376.4,174.2l3.9,2.7l3.9,1.9l1.3-0.2l0.5-0.5l0.4-1.1l0.5-0.2l2.5,0.3l1.3-0.5l1.6,0.2l3.5-0.6l2.4,2l1.4,0.1
		l1.5,0.8l1.5,0.1l0.9,1.1l1.5,0.2l-0.1,1l1.7,2.1l3.3,0.6l0,2.6l1.1,1.9l0,2.3l1.1,1.1l0.3,1.7l1.7,1.5l0.1,1.9l1.5,2.1l-0.5,2.3
		l0.4,3.1l0.5,0.5l0.9-0.2l0,1.2l1.2,0.5l-0.4,2.4l0.2,0.4l1.1,0.4l-0.6,0.8l-0.1,1l0.1,0.6l0.8,0.5l0.2,1.4l-0.3,0.9l0.3,1.3
		l0.5,0.6l0.3,1.9l-0.2,1.3l0.2,0.7l-0.6,0.9l0,0.8l0.5,0.9l1.2,0.6l0.2,2.5l1.1,0.5l0,0.8l1.2,2.8l-0.2,1l1.2,0.2l0.8,1l1.1,0.2
		l-0.1,1l1.3,1.7l-0.2,1.1l0.5,0.9l-26.1,1.1l-27.8,0.6l-27.8,0.1l-27.9-0.4l0.5-21.6l-0.4-0.4l-32.4-1l1.9-43.2l43.4,1.2
		L376.4,174.2L376.4,174.2z"/>
	<path class="st0" d="M462.8,413.1l-1.3-21.8l51.4-4.1l0.3,0.8l1.5,0.6l-0.9,1.4l-0.2,2.1l0.5,0.7l1.2,0.3l-1.2,0.5l-0.5,0.8
		l0.5,1.4l1,0.8l0.1,2.1l0.5,0.5l1.5,0.7l0.5,1l1.4,0.4l-0.9,1.2l-0.8,2.3l-0.8,0l-0.5,0.5l0,0.7l0.6,0.7l-0.2,1.2l-1.3,1l-1.1,1.9
		l-1.4,0.7l-0.7,0.8l-0.8,2.4l-0.2,3.5l-1.5,1.7l0.1,1.2l0.6,1l-0.3,2.4l-1.6,0.3l-0.6,0.6l0.3,1l0.6,0.6l-0.3,1.4l1,1.5l-1.2,1.2
		l-0.1,0.5l0.4,0.2l6.2-0.5l29.2-2.9l-0.7,3.5l-0.5,1l-0.2,2.2l0.7,1l-0.1,0.7l0.6,1l1.3,0.7l1.2,1.4l0.1,0.9l0.9,1.4l0.1,1l1.1,1.8
		l-1.8,0.4l-0.4-0.1l0-0.6l-0.5-0.6l-1.3,0.3l-1.2-0.6l-1.5,0.2l-0.6-1l-1.2-0.9l-2.8-0.5l-1.2,0.6l-1.4,2.3l-1.3,1.4l-0.4,0.9
		l0.1,1.2l0.5,0.9l0.8,0.6l4.2,0.8l3.3-1l1.3-1.2l0.7-1.2l0.3,0.6l1.1,0.4l0.6-0.4l0.8,0l0.5-0.5l-0.8,1.2l-1.1-0.1l-0.6,0.3
		l-0.4,0.6v0.8l0.8,1.2l1.5,0l0.7,0.9l1.1,0.5l1.4-0.7l0.5-1.1l0-1.4l0.9-0.6l0.4-1l0.2,0l0.1,1.2l-0.2,0.2l0.2,0.6l0.4,0.1
		l-0.1,0.8l1.3,1.1l0.3-0.2l-0.5,0.6l0.2,0.6l-0.2,0.2l-0.8-0.7l-0.7-0.1l-1,1.9l-0.8,0.1l-0.5,0.5l0.2,1.2l-1.6-0.6l-0.4,0.2l0,0.5
		l1.1,1.1l-1.2-0.1l-0.9,0.6l0.7,0.4l1.3,2l2.7,1l-0.1,1.2l0.3,0.4l2.1-0.3l0.8,0.2l0.2,0.5l0.7,0.3l1.3-0.3l0.5,0.8l1.1-0.5
		l1.1,0.7l0.1,0.3l-0.4,0.6l1.5,0.9l-0.4,0.6l0.4,0.6l-0.2,0.6l-1,1.5l-1.3-1.6l-0.7,0.3l0.1,0.7l-0.4,0.1l0.4-1.9l-1.3-0.8
		l-0.5,0.5l0.2,1.2l-0.5,0.5l-0.3-1l-0.6-0.2l-0.9-1.3l0-0.8l-1-0.1l-0.5,0.5l-1.4-0.2l-0.7-0.8l-2.3-0.1l0.4-0.9l-0.1-0.7l-0.6-0.7
		l-0.9,0l0.1-1l-0.4-0.4l-0.9,0l-0.2,0.6l-0.8-0.4l-0.5,0.3l-2.6-1.3l-1.2,0l-0.7-0.6l-0.6,0.2l-0.3,0.6l0,1.2l1.7,0.9l1.7,0.4
		l-0.2,0.9l0.3,0.4l-0.3,0.3l0.2,0.7l-0.8,0.9l0,0.7l0.8,1l-1,1.4l-1.3,0.9l-0.8-1.1l0.2-1.5l-0.3-0.9l-0.5-0.2l-0.4,0.4l-1.2-1.1
		l-0.6,0.4l-0.8-1l-0.6-0.2l-0.6,1.3l-0.8,0.3l-0.9-0.5l-0.8,0.5l-0.1,0.6l0.5,0.4l-0.7,0.6l-0.1,1.4l-0.5,0.1l-0.4,0.8l-0.9,0.1
		l-0.1-0.7l-1.6-0.4l-0.8,1l-1.9-0.9l-0.3-0.5l-1,0l-0.3,0.6l-1.2-0.5l0.4-0.4v-1.5l-0.4-0.6l-1.9-1.2l-0.1-0.5l-0.8-0.7l-0.1-0.9
		l0.7-1.1l-0.3-1.1l-0.9-0.2l-0.3,0.6l0.2,0.4l-0.6,0.8l0,0.9l-1.8-0.4l0.1-0.4l-0.5-0.5l-2,0.8l-0.7-2.2l-1.3,0.2l-0.2-2.1
		l-1.3-0.4l-1.9,0.3l-1.1,0.7l-0.2-0.7l0.8-0.3l0-0.8l-0.6-0.6l-1-0.1l-0.8,0.4l-0.9-0.1l-0.4,0.8l-2,1.1l-0.6-0.3l-1.3,0.7l0.5,1.4
		l0.8,0.3l1,1.5l-1.3,0.4l-1.8,1.1l-7.6-0.9l-6.7-2.3l-3.5-0.6l-6.8,0.7l-3.4,0.8l-1.6,0.7l-0.9-1.4l1.2-0.5l0.8-1l0.3-2.3l-0.6-0.8
		l1.2-1.6l0.2-1.6l-0.5-1.8l0.1-1.5l-0.7-0.7l-0.2-1l0.8-2.2l-0.6-2l0.8-0.8l0.3-1.5l0.8-0.9l0.8-2.8l-0.2-1.4l0.6-1l-0.8-1.3
		l0.8-0.4l0.2-0.4l-0.9-1.4l0-2.1l-1.1-0.2l-0.6-1.6l-0.9-0.8l0.3-1.3l-0.8-0.8l-0.3-1l-0.6-0.3l0.2-1l-1.2-0.6l-0.8-0.9l0.2-2.5
		l-0.7-1.9l-1.3-2L462.8,413.1L462.8,413.1z M502.8,462.8L502.8,462.8L502.8,462.8L502.8,462.8z M561.3,467.5L561.3,467.5l-0.1-0.1
		L561.3,467.5L561.3,467.5L561.3,467.5z M561.3,465.9L561.3,465.9L561.3,465.9L561.3,465.9L561.3,465.9z M520.9,469.1l-2-0.4
		l-0.7-0.5l0.7-0.4l0.3-0.8l0.4,0.5l0.8,0.2l-0.1,0.6L520.9,469.1L520.9,469.1z"/>
	<path class="st0" d="M290.3,129l0.3-0.5l0.8-19.9l28.5,0.9l28.4,0.4l28.4-0.2l27.8-0.7l-0.2,1.7l-0.7,1.7l-2.9,2.5l-0.4,1.3
		l1.6,2.1l1.1,2.1l0.5,0.4l1.7,0.2l1,0.8l0.6,1l1.5,38.8l-1.8,0.1l-0.4,0.6l0.2,1.4l0.9,1.1l0,1.4l-0.6,0.4l0.2,1.5l0.5,0.4l1.1,0
		l0.3,1.7l-0.2,0.9l-0.6,0.8l0,1.7l-0.7,2.4l-0.5,0.4l-0.7,1.9l0.5,1.1l1.3,1.1l-0.2,0.6l0.6,0.7l0.4,1.1l-1.6-0.3l-0.3-0.9
		l-0.9-0.7l0.2-0.6l-0.3-0.6l-1.6-0.2l-1-1.2l-1.6-0.1l-1.5-0.8l-1.3-0.1l-2.4-2l-3.8,0.6l-1.6-0.2l-1.2,0.5l-2.6-0.3l-1,0.5
		l-0.8,1.4l-0.7,0.1l-3.7-1.8l-4.1-2.8l-44.8,0.1l-43.3-1.2L290.3,129L290.3,129z"/>
	<path class="st0" d="M736.9,218.7l-0.5-0.6l-1.5-0.7l0.6-1l2,1.3L736.9,218.7L736.9,218.7z"/>
	<path class="st0" d="M752.2,195.3l0.5-1.6l0.9-1.1l1.7-0.7l1.1,0.1l-0.3,0.6l-0.1,1.4l-0.5,1.1l-0.6,0.5l-0.1,0.8l0.1,0.6l1,0.9
		l0.1,2.3l4,3.3l1.1,4l2,1.7l0.5,1.3l3.2,2.3l1.3-0.1l0.5,1.2l-0.6,0.3l-0.3,0.7l0,0.8l0.4,0.2l-0.8,0.6l-0.1,1.2l0.7,0.2l0.8-0.7
		l0.7,0.3l0.3-0.2l0.6,1.6l-9.8,2.6L752.2,195.3L752.2,195.3z"/>
	<path class="st0" d="M584.1,423.8l47.2-6.9l1.5,1.9l0.9,2.7l1.5,1l48.8-5.1l1,1.4l0,1.1l0.5,1l1,0.5l1.6-0.3l0.8-0.8l-0.1-4.6
		l-1-1.5l-0.2-1.8l0.3-0.7l0.6-0.3l0.1-0.7l5.6,1l4-0.2l0.1,1.2l-0.8-0.1l-0.3,0.4l0.2,1.5l2.1,1.8l0.2,1l0.4,0.4l0.3,1.9l5.3,11.5
		l1.8,3.1l7.1,10.2l0.6,0.4l6.8,7.5l-0.5,0l-0.3,0.6l-1.3,0l-0.3-0.6l0.4-1.4l-0.2-0.6l-2.3-0.9l-0.5,0.5l1,2.8l0.8,1l2.1,4.8
		l9.9,13.7l1.4,3.1l3.7,5.3l-1.4-0.4l-0.4,0.7l0.8,0.6l0.8,0.2l0.6-0.2l1.5,0.9l2,3l-0.5,0.3l-0.1,0.5l1.2,0.5l0.9,1.8l-0.1,1.1
		l0.6,1l0.6,2.6l-0.3,0.8l0.9,9l-0.3,1.1l0.5,0.7l0.5,3.1l-0.8,1.3l0,2.4l-0.8,0.7l-0.2,1.8l-0.5,0.8l0.2,1.5l-0.3,1.7l0.5,1.7
		l0.5,0.2l-1.2,1.8l-0.4,1.3l-0.9,0.2l-0.5-0.2l-1.4,0.5l-0.3,1.1l-0.9,0.3l-0.2,0.6l-0.8,0.7l-1.4,0.1l-0.3-0.3l-1.2-0.1l-0.9,1
		l-3.2,1.1l-1.1-0.6l-0.7-1l0.1-1.8l1,0.8l1.6,0.5l0.3,0.6l0.5,0.1l1.3-0.7l0.2-0.7l-0.3-0.6l-1.6-1.1l-2.4-0.3l-0.9-0.5l-0.8-1.7
		l-0.9-0.7l0.2-1l-0.5-0.3l-0.5,0.2l-1.4-2.5l-0.4-0.3l-0.6,0.1l-0.4-0.6l0.2-0.9l-0.7-0.7l-1.2-0.6l-1.1-0.1l-0.8-0.5l-0.6,0.2
		l-2.8-0.6l-0.5,0.6l0.2-0.9l-0.5-0.4l-0.9,0.1L713,512l-0.9-0.6l-0.6-1.4l-0.5-0.1l-0.7-3l-0.8-1l-0.2-1.5l-0.4-0.8l-0.7-0.9
		l-0.5-0.1l-0.1,0.9l-1.3-0.3l1.1-1.3l0.2-1.4l0.9-1.5l0.7-0.3l0.3-0.8l-0.6-0.4l-1.4,0.9l-1,1.7l-0.3,1.8l-1.4,0.4l-0.2-1.3
		l-0.8-1.3l-0.3-4l-0.9-0.6l1.6-1.3l0.2-1l-0.6-0.4l-3,1.9l-0.8-0.7l-0.4,0.3l-1.3-0.9l-0.4,0.7l1.1,1.1l0.5,0.1l1.3,2l-1,0.2
		l-1.4-0.4l-0.8-1.6l-1.1-0.6l-1.9-2.5l-1-2.3l-1.3-0.9l0.1-0.9l-1-1.8l-1.8-1l0.1-0.7l1-0.4l-0.3-0.5l0.4-0.7l-0.4-0.4l0.4-1.2
		l2.5-4.5l-1-2.4l-0.7-0.5l-0.9,0.4l-0.3,0.9l0.3,1.2l-0.2,0l-0.7-2.4l-1-0.3l-1.2-0.9l-1.5-0.3l0.3,1.9l-0.5,0.6l0.3,0.6l2.2,0.6
		l0.2,1l-0.4,2.5l-0.3-0.6l-0.8-0.2l-2.1-1.5l-0.4,0.2L684,477l0.6-2.1l0.1-3l-0.7-2l0.4-0.5l0.5-1.9l-0.2-0.5l0.7-3l-0.4-5.4
		l-0.7-1.6l0.3-0.5l-0.5-2.2l-2.1-1.3l0-0.5l-0.5-0.4l-0.1-1l-0.9-0.7l-0.5-1.5l-0.6-0.2l-1.4,0.3l-1-0.2l-1.6,0.5l-1.2-1.7
		l-1.5-0.5l-0.2-0.6l-1.3-1.5l-3.8-1.9l-0.5-2.8l-3.1-1.1l-0.7-0.6l-0.5-1.2l-2.2-1.9l-2.2-1.1l-1.5-0.1l-3.4-1.7l-2.8,1l-1-0.4
		l-1,0.4l-0.4,0.7l-1.3,0.7l-0.5,0.7l0,0.6l-0.7-0.2l-0.6,0.6l0.7,0.9l1.5,0.1l0.4,0.2l-3,0.2l-1.6,1.5L642,440l-1.3,1.6l-1.6,1
		l-0.3,0.1l0.2-0.5l-0.3-0.5l-0.7,0l-2.1,2.2l-2.2,0.2l-2.1,1.1l-0.8,0l-0.3-2l-1.7-2.2l-2.2-1l-0.2-0.4L624,438l2.8,1.3l1.2-0.7
		v-0.7l-1.3-0.3l-0.3,0.5l-0.2-1l-0.3-0.1l0.1-0.5l-0.5-0.3l-1.4,0.6l-2.3-0.8l0.7-1.1l0.8-0.1l1-1.5l-0.9-1l-0.5,0.1l-0.5,1l-0.4,0
		l-0.8,0.6l-0.7-0.9l-0.7,0.1l-0.2,0.4l-1.3,0.7l-0.1,0.7l0.3,0.5l-4-1.4l-5-0.7l0.1-0.2l1.3,0.3l0.6-0.5l2.1,0.4l0.2-0.8l-0.9-1
		l0.1-0.7l-0.6-0.3l-0.5,0.3l-0.3-0.5l-1.9,0.2l-2.2,1.1l0.3-0.6l-0.4-0.6l-1,0.4l-0.6-0.2l-0.2,0.4l0.2,0.7l-1.5,0.8l-0.4,0.6
		l-5.2,1l0.3-0.5l-0.4-0.5l-1.3-0.3l-0.7-0.5l0.7-0.5l0-0.8l-0.7-0.1l-0.8-0.7l-0.5,0.1l0.1,0.8l-0.4,1.8l-1-1.4l-0.7-0.5l-0.5,0.1
		l-0.3,0.7l0.8,1.8l-0.2,0.8l-1.4,1l0,1l-0.6,0.2l-0.2,0.6l-1.5,0.5l0.3-0.7l-0.2-0.5l1.1-1l0.1-0.7l-0.4-0.6l-1.2-0.2l-0.4-0.8
		l0.3-1.7l-0.2-1.6l-2.2-1.1l-2.4-2.5l0.3-1.4L584.1,423.8L584.1,423.8z M598.2,434.2l-0.9,0.3l0.4-0.4L598.2,434.2L598.2,434.2z
		 M619,435.8l1-0.3l0.3,0.3l0.1,0.7L619,435.8L619,435.8z M724.4,455.1l0.4,0.6l-0.4,0.8L724.4,455.1L724.4,455.1z"/>
	<path class="st0" d="M777.2,156.7l2.8-3.2l-0.1-0.5l-1.3-1.2l-3.5-15.9l9.8-2.4l0.6,0.5l0.7-0.3l0.2-0.6l14.2-4l3.2,10.2l0.5,2
		l0,1.7l-1.7,0.3l-0.9,0.8l-0.7-0.4l-0.5,0.1l-0.2,0.9l-1.1,0.1l-1.3,1.3l-0.6-0.1l-0.6-1l-0.9-0.1l-0.2,0.7l0.8,0.6l0.1,0.5l-0.9,0
		l-1,0.9l-1.7,0.1l-1.2,0.9l-1.4,0.1l-1.2,0.9l-0.7-1l-0.6,0.1l-1,2.5l-1.1,0.6l-0.2,1l-0.8-0.3l-1,0.6l-0.1,0.9l-1.7,1l-1.9,2.3
		l-1.2,0.5l-0.2,0.4L777.2,156.7L777.2,156.7z"/>
	<path class="st0" d="M-7.7,55.2l0.4-1.1l0.9,0.7l0.5-0.1l0.5-0.7l0.5,0.7l0.7,0l0.2-0.8l-1-1.5l0.8-0.8l-0.1-1.4l0.5-0.4l-0.1-1
		l0.8-0.3l0,0.5l0.5,0.4l1-0.3l-0.1-0.7L-3,46.7l-1.8-0.1L-5,46.9l-0.8-0.8l0.3-1.6l0.7,0.5l0.5-0.1l0.3-0.6l-0.2-0.7l3.3-0.5
		l0.2-0.7l-2.6-1.3l0-0.8l-0.7-0.6l-1.3-0.3l0.4-4.7l-0.5-1.3l0.2-0.7l-0.5-0.5l0.5-3.9l0-4.4l-0.6-1l0-1l-1.6-2.3l0.3-4.2l-0.2-1.3
		l0.8-0.8l0-0.7l1-1.4l-0.6-1.4l1,0.8h0.4l3.3,3.3l1,0.4l2.2,2.4l3.7,1.5l1.2,0.1l0.8,0.7l0.7,0.3L9.1,19l1.6,1.1l1.5,0.5l1.3,0.3
		l1.2-0.6l0.5,0.3l0.5,0.7l0,1.2l0.5,0.7L17,23l0.1-0.8l0.4,0l0.6,1.4l-0.4,0.6l0.3,0.5l0.6,0l0.7-0.8L19,22.2l1-0.2l-0.4,0.2
		l-0.2,0.7l1.3,4.4l-0.5,0.1l-1.7,1.7l0.2-1.3l-0.2-0.4l-1.3,0.3l-0.4,0.8l0.1,1l-1.4,1.7l-2,1.4l-1.1,1.4l-1,0.7l-1.1,1.7L10.3,37
		l0.6,0.6l1,0.1l2.8-0.5l1.2-0.6l0-0.7l-0.6-0.2l-2.9,0.8L12,36.2l3.2-3.4l3.1-0.9l0.9-1.5l1.7-1.5l0.5,0.6l0.5-0.2l0.2-1.8
		l-0.1,2.2l0.3,0.9l-1-0.2l-0.6,0.8l-0.4-0.7l-0.5-0.2l-0.4,0.6l0.3,2.3l-0.2-1.1l-0.7-0.2l-0.5,0.7l-0.1,0.8l0.5,0.7l-0.6,0.6v0.5
		l0.4,0.2l1.7-0.6l0.2,1.1l-1.1,1.8l-0.1,1l-0.8,0.7l0.1,1l-0.8-0.7l1.1-1.4l-0.2-1l-2,1.1l-0.4,0.6l0-2.1l-0.5,0l-1,1.6L13.5,39
		l-1.1,1.9l-1.5,0.3l-0.5,0.4l-0.2,1.2l1.1,0L11,43.1l0.3,0.4l0.9,0l0.1,0.7l0.5,0.5l0.5-0.3l0.3-1.8l0.2,0.4l0.8-0.2l1.1,1.5
		l1.3-0.6l1.6-1.5l1-1.6l0.6,0.8l0.7,0.1l0.4-0.2l-0.1-0.9L23,40l0.3-0.9L23,37.8l0.2-1.2L23,35.2l0.8,0.2l0.3-0.9L24,33.8l-0.7-0.6
		l0.9-1.1l0.1-1.8l1.2-1.2l0.6-1.4l1.6-0.5l0.8-1.1L28,25.3l-0.5,0L26.6,24l0.2-2.1l-0.3-0.9l0.5-0.8l0.1-0.8l-1.2-1.7l-0.6-0.4
		l-0.2-0.6l0.2-0.5l0.6,0.2l0.5-0.3l0.2-1.8l0.8-0.2l0.3-1l-0.6-2.3l0.4-0.5l0-0.9l-1-0.9l-0.9,0.3l-1.1-2.6l0.9-1.8l41.3,9.4
		l38.9,7.6L95.6,76.7l1,3l0.1,2l-1,1.3l0.7,1.9L65.4,79l-1.7,0.8l-7.2-1l-1.7,0.9l-4.2-0.1L47.4,80l-1.6,0.8l-0.9-0.3l-1.2,0.3
		l-1.5-0.2l-2.4-0.9l-0.9,0.5l-3.4,0.5l-2.1-0.7l-1.6,0.3l-0.3-1.4l-1.1-0.9l-4.3-1.5l-2.3-0.1l-1.2-0.5l-1.3,0.2l-1.9,0.9l-4.5,0.6
		l-2.3-1l-1.6-1.2L9,74.8L8.4,74l0.6-6.8l-0.5-0.9l-0.2-1.9l-1-1.3l-2-1.7l-1.6-0.2l-1.3,0.3l-2-3.2l-2.1-0.2L-2,57.6l-0.1-0.5
		l-0.5-0.5l-1.2,0.3l-0.8-0.2l-1,0.5l-1-1.8L-7.7,55.2L-7.7,55.2z M15.8,39.9l0.2,0.7l-0.4,0.5v-0.9L15.8,39.9z M25.2,20.5l-0.6,0.9
		l-0.2,0.5l0.2-1.4C24.6,20.6,25.2,20.5,25.2,20.5z M25.1,15.8L25.1,15.8L25.1,15.8L25.1,15.8L25.1,15.8z M24.3,15.6L23.5,16
		l0.4-0.7l-0.1-0.6l0.2-0.1L24.3,15.6L24.3,15.6z M11.5,42.6L11.5,42.6L11.5,42.6L11.5,42.6L11.5,42.6z"/>
	<path class="st0" d="M431.8,239.8l0.4,0.6l0.8,0.2l1,0.8l2.2-1.1v0.8l1.1,0.8l0.2,1.4l-1-0.1l-0.6,0.3l-0.2,1l-1.1,1.4l-0.1,1.1
		l-0.8,0.5l0,0.6l1.6,2.1l2,1.5l0.2,1.1l0.4,0.9l0.7,0.6l0.3,1.1l1.9,0.9l1.5,0.3l2.7,46.8l-31.5,1.5l-32,0.9l-32,0.3l-32-0.4
		l1.2-65.5l27.9,0.4l27.8-0.1l27.8-0.6l27.7-1.1L431.8,239.8L431.8,239.8z"/>
	<path class="st0" d="M463.9,124.2l0.4-0.3l0.3-0.9l-0.5-1.5l0-1.9l0.7-1.2l0.5-2.2l-1.6-2.9L463,113l-1.3,0l-0.2-2.3l1.7-2.3l0-0.8
		l0.8-1.6l2-1.1l0.5-0.8l1-0.2l0.5-0.8l1.2-0.1l1-1.6l-1-12.1l1-0.3l0.2-1.1l0.7-1l0.8,0.7l1.7,0.6l2.6-0.6l3.3-1.6l2.7-0.8l2.2-2.1
		l0.3,0.3l1.4-0.1l1.2-1.5l0.8-0.6l1-0.1l0.4-0.5l1.1,1l-0.5,1.7l-0.7,1l0.2,1.6l-1.2,2.2l0.6,0.7l2.5-1.1l0.7-0.9l2.2,1.2l2.3,0.5
		l0.4,0.5l0.9-0.1l1.6,0.7l2.2,3.5l15.5,2.5l4.7,2l1.7-0.2l1.6,0.4l1.3-0.6l3.2,0.7l2.2,0.1l0.8,0.4l0.6,0.9l-0.4,1.1l0.4,0.8
		l3.4,0.6l1.4,1.1l-0.2,0.7l0.6,1.1l-0.4,0.8l0.4,1.2l-0.8,1.2l0,1.8l0.9,0.6l1.4-0.3l1-0.7l0.2,0.3l-0.8,2.4l0,1.3l1.3,1.5l0.8,0.3
		l-0.2,2l-2.4,1.2l-0.5,0.8l0,1.3l-1.6,3.5l-0.4,3.5l1.1,0.8l0.9,0l0.5-0.4l0.5-1.4l1.8-1.5l0.7-2.5l1.1-1.7l0.6,0.2l0.6-0.7
		l0.9-0.4l1.1,1.1l0.6,0.2l-0.3,2.2l-1.2,2.8l-0.6,5.6l0.2,1.1l0.8,0.9l0.1,0.5l-0.5,1l-1.3,1.3l-0.9,3.9l0.2,2.6l0.7,1.2l0.1,1.2
		l-1.1,3.2l0.1,2.1l-0.7,2.1l-0.3,2.5l0.6,2l0,1.3l0.5,0.5l-0.2,1.7l0.9,0.8l0.5,2.4l1.2,1.5l0.1,1.7l-0.3,1.4l0.5,2.9l-44.2,4.6
		l-0.2-0.8l-1.6-2.2L496,173l-1.1-1.4l-0.4-1.7l-0.9-1.2l-0.9-4.9l1-2.6l-0.1-1l-0.7-0.8l-1.4-0.5l-0.7-1.8l-0.5-6l-0.7-1.4
		l-0.5-2.6l-1.2-0.6l-1.1-1.6l-0.9-0.1l-1.2-0.8l-1.7,0.1l-2.7-1.8l-2.3-3.5l-2.6-2.1l-2.9-0.5l-0.7-1.2l-1.1-1l-3.1-0.4l-3.5-2.7
		l0.5-1.2l-0.1-1.6l0.2-0.8L463.9,124.2L463.9,124.2z"/>
	<path class="st0" d="M-35.4,140.3l0.6-3.9l1.3-2.5l0.2-1.2l0-1.3l-0.5-0.7l-0.1-1.1l-0.4-0.3l-0.1-1.8l2.7-3.6l2.2-4.7l0.1-1.1
		l0.4-0.3l0,0.8l0.7,0.1l0.4-1.1l0.9-0.8l0.2,0.9l1.4,0.3l-0.5-2.6l-0.9,0.1l2.1-3.8l1.1-0.8l0.8,0.4l0.5-0.3l-0.7-1.3l-0.6-0.3
		l1.7-4.4l0.4-0.4l0-1l1.7-5.5l1-2l0.4,0.3l0.7-0.3l-0.1-1l-0.6-0.3l1-2.7l0.8,0.2l0.2-0.4l-0.2-0.5l-0.5-0.3l0.5-2.9l1.6-2.7l0.8-3
		l1.1-1.8l1-3.1l-0.1-1l1.2-1.1l0-0.6L-11,74l0.1-0.5l0.5,0.6l0.5,0.1l0.4-0.6l0.2-1.4l-0.7-0.7l0.5-1.2l1.3-0.8l0-0.5l-0.9-0.5
		l-0.3-1.1l0.9-2.2l-0.1-1.4l0.9-0.6l0.4-0.8l0.1-3.8l0.5,0.9l0.9,0.4l0,0.9l0.5,0.5l0.4-0.8l0.4-0.1l-0.3-1l1.1,0.8h1.5l1.5-0.7
		l1.4,2.4l2,0.8L4.2,62L5.1,62l1.7,1.5l0.8,1l0.2,1.9l0.4,0.8l0,2.1l-0.4,1.2L8,71.5l-0.4,1.7l0.3,1.4l0.8,0.8l1.9,0.6l1.4,1.1
		l2.4,1.1l5-0.5l2.9-1.1l1.1,0.5l2.2,0.1l4.2,1.4l0.7,0.5l0.2,1.2l0.6,0.6l1.9-0.3l2.1,0.7l3.8-0.6l0.7-0.4l2.2,0.9l1.6,0.2l1.2-0.3
		l0.9,0.3l1.9-0.8l3.1-0.4l4.2,0.1l1.6-0.9l7.2,1l1-0.2l0.8-0.6l31.3,5.9l0.2,1.8l0.9,1.8l1.2,0.6l2,1.9l0.6,2.4l-0.2,1l-3.7,4.5
		l-0.4,1.4l-1.4,2.6l-2.2,2.4l-0.6,2.7l-1.5,1.8l-2.2,1.5l-1.9,3.3l-1.5,1.3l-0.6,2l-0.1,1.9l0.3,0.9l0.6,0.6l0.5,0l0.4-0.3l0.6,0.8
		l0.9-0.1l0.1,0.9l0.8,0.9l-0.5,1l-0.6,0.1l-0.3,0.4l0.2,1.8l-1,2.6l-1.2,1.4L78.9,171l-26.2-5l-28.9-6.1L-5,153.3l-28.9-7.2
		l-1.5-2.5l0.3-2.5L-35.4,140.3L-35.4,140.3z"/>
	<path class="st0" d="M536.9,306.7l0.3-2.2l1.1,1l0.7,0.2l0.8-0.4l0.5-0.9l0.9-3.5l-0.5-1.8l0.4-0.9l-0.1-1.9l-1.3-2l1.8-3.2
		l1.2-0.5l0.7,0.1l7,2.6l0.8-0.2l0.7-0.7l0.2-1.9l-1.5-2.1l-0.2-1.4l0.2-0.9l0.4-0.5l1.1-0.2l1.2-0.8l3-1l0.6-0.5l0.2-1.1l-1.5-2
		l-0.1-0.7l1.3-2l0.1-1.2l1.2,0.4l1.1-1.3l-0.7-2l1.9,0.9l1.7-0.8l0,1.2l1,0.5l1-0.9l0-1.4l0.5,0.2l1.9-1l4.4,1.5l0.6,0.9l0.9,0.2
		l0.6-0.6l0.7-2.5l1.4-0.5l1.4-1.3l0.9,1.3l0.8,0.4l1.2-0.1l0.1,0.8l1,0.2l0.7-0.6l0-1l0.8-0.4l0.3-0.5l-0.2-2.1l0.8-0.4l0.3-0.6
		l-0.1-0.7l1.2-0.6l0.3-0.7l0.4,1.5l0.6,0.6l1.5,0.6h1.2l1.1,0.8l0.5-0.1l0.3-0.5l1.1-0.5l0.5-0.7l0-3.5l0.8-2.2l1,0.2l1.5-1.2
		l0.8-3.5l1-0.4l1.7-2.2v-0.8l-1.2-2.9l2.8-0.6l1.5,0.8l3.8-2.8l2.2-0.5l-0.2-1.1l0.4-1.5l-0.3-0.4l-1.2,0l0.6-1.4l-1.1-1.5l1.7-1.8
		l1.8,1.2l0.9-0.1l1.9-1l0.8,0.9l1.8,0.5l0.6,1.3l0.9,0.9l0.8,1.8l2.6,0.7l1.9-0.6l1.6,0.3l2.2,1.9l1,0.4l1.3-0.2l0.6-1.3l1-0.5
		l1.3,0.5l1.3,0l1.3,1.1l1.3-0.7l1.4-0.1l1.8-2.6l1.7-1l0.9,2.4l0.7,0.8l2.5,0.8l1.3,1l0.8,1.1l0.9,3.4l-0.4,0.4l0.1,0.7l-0.4,0.6
		l0,0.5l2.2,2.6l1.3,0.9l-0.1,0.9l1.3,1l0.6,1.4l1.5,1.2l1,1.6l2.1,0.8l1.1,1.1l2.1,0.2l-4.9,6.1l-5.1,4.1l-0.4,0.9l0.2,1.2
		l-2.1,1.9l0,1.6l-3.1,1.6l-0.8,2.4l-1.7,0.6l-2.7,1.8l-1.7,0.5l-3.4,2.4l-24,3.1l-8.8,1.4l-7.5,0.9l-7.7,0.5l-22.7,3.5l-0.6-0.6
		l-3.6,0.1l-0.4,0.6l1,3.6L536.9,306.7L536.9,306.7z"/>
	<path class="st0" d="M790.8,56.4l0.9-1.2l1.4,1.7l0.8,0l0.4-2.1l-0.5-2.2l1.7,0.4l0.7-0.4l0.2-0.5l-0.3-0.7L795,51l-0.4-0.6
		l0.2-1.4l0.9-2l2.1-2.2l0-1l-0.5-0.9l1-1.6l0.4-1.5l-0.2-0.9l-1-0.3l-0.1-1.4l-0.4-0.4l0.5-1l0-0.6l-1-1.3l0.1-1.7l0.4-0.6l-0.2-1
		l1.2-1.9l-1-6.2l5.6-18.9l2.2-0.2l1.1,3.2l0.5,0.4l2.5,0.6l1.8-1.7l1.7-0.8l1.2-1.7l1.2-0.1l0.6-0.5L816,1l0.4-0.3l1.4,0l3.7,1.4
		l1.1,1l2.4,1l8.4,22.7l0.6,0.6l-0.2,1.3l0.6,0.9l-0.1,1.5l-0.3,0l-0.2,0.7l1.7,1.1l1.8,0.2l0.8,0.4l1.9-0.2l1.2-0.6l0.3,0.9
		l-0.6,1.4l1.7,1.9l0.3,2.7l2.7,1.7l1-0.1l0.5-0.7l-0.1-0.5l0.4,0.1l0.2,0.5l0.6,0.1l1.4,1.1l0.3,0.8l1.3,0.9l0,0.5l-0.5-0.1
		l-0.4,0.4l0.2,0.8l-0.8-0.2l-0.3,0.4l0.2,0.6l0.8,0.5l0.5,0.9l0.5,0.2l0.2-0.9l0.4-0.2l0.8,0.3l0.2-0.8l0.3,0.4l-0.3,0.8l-0.5,0.2
		l-1.2,3.2l-0.6,0l-0.3,0.4l-0.5-1l-0.7,0l-0.3,0.5l-0.6,0.1l0,0.5l0.6,0.8l-0.9-0.5l-0.3,0.6l0.3,0.5l-1.2-0.3l-0.4,0.3l-0.4,0.8
		l0.1,0.5l0.4,0.1l0.1,1.2l-0.4-0.6l-0.5-0.1l-0.4,0.5L845,56l-0.5-1.5l-1.1,0l-0.7,0.8l-0.4,1.5l0.6,0.6l-0.8,0.6l-0.7-0.5l-0.7,1
		l0.1,0.6l1,0.6l-0.3,0.2l-0.1,0.8l-0.5-0.2l-0.8-1.8l-1-0.5l-0.4,0.2l-0.5-0.4l-0.6,0.6l-1.2-0.2l-0.3,0.8l0.8,0.4l0,0.4l-0.5,0
		l-0.6,0.4l-0.1,0.7l-0.5-1l-1.2,0l-0.2,0.6l0.5,0.9l-1.4,1l0.8,1.1l0.1,1.1l0.5,0.7l-1-0.4l-1,0.2l-1.2-0.4l-0.2-0.9l0.7-0.3
		l-0.1-0.6l-0.4-0.5l-0.7-0.1l-0.3,0.3l-0.2-2.4l-0.4-0.2l-1.1,0.3l0,2l-1.8,1.9l0,0.5l1.2,1.5l-0.6,1l-0.2,3.9l0.8,1.4l-1.1,1.7
		l-0.8-0.2l-0.5,0.9l-0.6-0.1l-0.4-1.2l-0.7-0.2l-0.5,1l0.1,0.7l-0.5,0.6l0.1,2.4l-1-1l0.1-1.3l-0.2-0.6l-0.8,0.3l-0.1,2l-0.4-0.2
		L821,76l-0.5-0.4l-0.7,0.5l-0.8,3l-0.8-2l0.2-1.2l-0.4-0.3l-0.5,0.2l-1,2.6l0.3,0.5l0.8-0.2l1,2.1l-0.3-0.6l-0.5-0.2l-0.7,0.3
		l-0.1,0.6l-1.4-0.1l-2.2,3.2l-0.5,1.9l0.3,0.6l-0.7,0.7l0.5,0.4l0.9-0.2l0.4,0.9l-0.8,0.3l-0.2,0.4l-0.4,0l-0.5,0.6l-0.1,1l0.7,1.4
		l-0.1,0.7l-0.8,1.3l-0.9,0.6l-0.5,1.3l0.4,1.6l-0.4,2.8l-0.8-0.3l-0.4,0.6l-1-0.8l-0.6-1.8l-0.9-0.4l-2.4-2l-0.8-3.4l-13.2-35.5
		L790.8,56.4z M817.7,81.4l0.1,0.3l-0.1,0.2l0-0.3L817.7,81.4L817.7,81.4z M819.1,81.6l0.5,0.7l0,0.5l-0.3-0.2L819.1,81.6
		L819.1,81.6z M821.5,78.5l0.4,0.8l-0.2,0.1l-0.4-0.2L821.5,78.5z M830.9,65.1l-0.1,0.2l0-0.2L830.9,65.1L830.9,65.1z M826.9,75.4
		L826.9,75.4L826.9,75.4L826.9,75.4L826.9,75.4z"/>
	<path class="st0" d="M618.9,179.1l1.7,0.4l1-0.3l1.8,1.1l2.1,0.3l1.5,1.2l1.7,0.2l-2.2,1.2l-0.1,0.5l0.4,0.2l2.5,0.2l1.4-1.1
		l1.8-0.2l3.4,1l0.9-0.1l1.5-1.3l1.7-0.6l1.2-1l1.9-1l2.6,0l1.1-0.6l1.2-0.1l1.1-0.8l4.2-5.5l4.5-3.5l6.9-4.4l5.8,28l-0.5,0.5
		l-1.3,0.4l-0.4,0.9l1.7,2.2l0,2.1l0.4,0.3l0.3,0.9l0,0.8l-0.5,0.8l-0.5,4.1l0.2,3.2l-0.6,0.4l0.3,1.1l-0.3,1.7l-0.4,0.5l0.8,1.2
		l-0.2,1.9l-2.4,2.6l-0.8,1.9l-1.4,1.5l-1.2,0.7l-0.6,0.7l-0.9-0.9l-1.2,0.1l-1.3,1.7l-0.1,1.3l-1.8,0.9l-0.8,2.2l0.3,1.6l-0.9,0.9
		l0.3,0.7l0.6,0.4l0.3,1.3l-0.8,0.2l-0.5,1.6l0.1-0.9l-0.9-1.3l-1.5-0.6l-1.1,0.7l-0.8,2l-0.3,2.7l-0.5,0.8l1.2,3.6l-1.3,0.4
		l-0.3,0.4l-0.2,3.1l-2.7,1.2l-1,0.1l-0.8-1.1l-1.5-1.1l-2.3-0.7l-1.2-1.9l-0.3-1.1l-0.4-0.3l-0.7,0.1l-1.8,1.2l-1.1,1.3L636,245
		l-1.4,0.1l-0.9,0.6l-1.1-1l-3.1-0.6l-1.4,0.7l-0.5,1.2l-0.7,0.1l-3-2.3l-1.9-0.3l-1.8,0.6l-2.1-0.5l-0.5-1.5l-1-1l-0.6-1.4l-2-0.8
		l-1.1-1l-1,0.3l-1.3,0.9l-0.5,0l-1.8-1.2l-0.6,0.2l-0.6,0.7l-8.7-55.6L618.9,179.1L618.9,179.1z M629.4,181.5l0.5-0.8l0.7,0.4
		l-0.5,0.4L629.4,181.5L629.4,181.5z"/>
	<path class="st0" d="M352.9,359.4l0-42l-0.4-0.4l-51.8-0.8l0.3-10.2l36.7,0.7l36-0.1l36-0.9l35.6-1.6l0.6,10.7l4.5,24.3l1.4,37.9
		l-1.2-0.2l-0.3-0.4l-2.1-0.2l-0.8-0.8l-2.1-0.4l-1.8-2l-1.2-0.2l-2.2-1.6l-1.5-0.4l-0.8,0.5l-0.2,0.9l-0.8,0.2l-0.5,0.6l-2.5-0.1
		l-1.8-1.5l-2.3,1.3l-1.2,0.2l-0.2,0.6l-0.6,0.3l-2.1-0.8l-1.7,1.2l-2.1,0.5l-0.8,1.4l-1.5,0.1l-0.6,1.2l-1.3-1.5l-1.7-0.1l-0.3-0.6
		l-1.2-0.5l0-1l-0.4-0.5l-1.2-0.2l-0.7,1.4l-0.7,0.1l-0.8-0.5l-1,0.1l-0.7-1.5l-1.1-0.4l-1.2,0.6l-0.5,1.7l-0.7-0.1l-0.5,0.4
		l0.3,0.7l-0.5,1.7l-0.4,0.2l-0.9-1.5l0.4-1.6l-0.8-0.9l-0.8,0.2l-0.5,0.8l-0.8-0.2l-0.9,1l-1.1,0.1l-0.5-1.4l-2-0.2l-0.3-1.5
		l-1.2-0.5l-0.8,0.3l-2.1,2.1l-1.2,0.5l-1-0.4l0.2-1.2l-0.3-1.1l-2.3-0.7l-0.1-2.2l-0.4-0.5l-2.1,0.4l-2.5-0.2l-0.6,0.3l-0.8,1.2
		l-1,0.1l-1.8-1.8l-1-0.1l-1.5,0.6l-2.7-0.6l-1.9-1l-1,0.2l-2.5-0.3l-0.2-2.1l-0.9-0.9l-0.4-1l-1.2-0.4l-0.7-0.8l-0.8,0.1l-0.4,1.6
		l-2.2-0.7l-1.1,0.6l-1-0.1l-3.8-3.8l-1.1-0.4L352.9,359.4L352.9,359.4z"/>
	<path class="st0" d="M86.3,121.5l-0.3-0.4l0.1-2l0.5-1.7l1.4-1.2l2.1-3.6l1.7-0.9l1.4-1.5l1.1-2.2l0.1-1.2l2.2-2.4l1.4-2.7l0.4-1.4
		l2-2.3l1.9-2.8l0-1l-0.8-2.9l-2.1-1.9l-0.9-0.4l-0.9-1.6l-0.4-3l-0.6-1.2l0.9-1.2l-0.1-2.3l-1-2.7l10.1-55.4l13.4,2.4l-3.5,20.7
		l1.3,2.9l1,1.3l0.3,1.5l1.2,1.8l-0.1,0.8l0.4,1.1l-1,1l0.8,1.8l-0.8,0.1l-0.3,0.7l1.9,1.7l1,2l2.2,1.2l0.5,1.6l1.1,1.3l1.5,2.8
		l0.1,0.7l1.6,1.8l0,1.9l1.8,1.7l-0.1,1.3l0.7,0.2l0.9-0.6l0.4,0.5l-0.4,0.6l0.1,0.5l1.1,1l1.6,0.2l1.8-0.4l-0.6,2.6l-1,0.5l0.2,1.1
		l-1.8,3.7l0.1,1.7l-0.8,0.1l-0.4,0.5l0.6,1.3l-0.6,0.9l0,1.2l1,0.9l-0.4,0.8l0.3,1l-1.6,0.4l-1.2,1.4l0.1,1.1l0.5,0.8l-0.1,0.7
		l-0.8,0.8l-0.2,1.5l1.5,0.6l1.4,1.8l0.8,0.3l1.1-0.3l0.6-0.8l1.9-0.4l1.2-1.3l0.8-0.3l0.1-0.8l0.8,0.8l0.2,0.7l1.1,0.6l-0.4,1.2
		l0.7,0.9l-0.3,1.4l0.6,1.3l-0.2,1.6l1.5,2.6l0.3,1.7l0.8,0.4l0.7,2.1l-0.2,1l-0.8,0.6l0.5,1.9l1.2,1.2l0.3,0.8l0.8,0.1l0.9-0.4
		l1,0.9l1.1,2.8l-0.5,0.8l0.9,1.8l-0.3,0.6l0.1,1l2.3,2.4l1-0.1l0-1.1l1.1-0.9l0.9-0.2l4.5,1.6l0.7-0.3l0.7-1.3l1.2-0.4l2.2,0.9
		l3.3-0.1l1,0.9l2.3-0.6l3.2,0.8l0.4-0.5l-0.7-0.8l0.3-1.1l0.7-0.5l-0.1-1l1.2-0.5l0.5,0.4l1.1,2.1l0.1,1.1l1.4,1.9l0.7,0.4
		l-6.3,53.8l-47.5-6.3l-47-7.7l6.9-39.2l1.1-1.2l1.1-2.7l-0.2-1.7l0.7-0.2l0.8-1.6l-0.9-1.3l-0.2-1.2l-1.2-0.1l-0.6-0.8L86.3,121.5
		L86.3,121.5z"/>
	<path class="st0" d="M172.4,207.2l10.1-86.6l25.4,2.7l26.8,2.4l26.8,1.9l27.8,1.5l-3.7,87.1l-27.3-1.4l-28.2-2l-29.7-2.6
		L172.4,207.2L172.4,207.2z"/>
	<path class="st0" d="M174.1,186l-2.5,21.5l0.4,0.4l32.2,3.4l-8.3,87.1l-42.5-4.7l-42.4-5.8L127,179.7L174.1,186L174.1,186z"/>
	<path class="st0" d="M554.7,189.8l1.4,0.9l2.1,0.1l1.5-0.4l2.6-1.4l2.7-2.1l32.1-4.8l9,57.4l-0.7,1.1l0.3,0.9l0.8,0.8l-0.7,1.1
		l0.5,0.8l1.1,0l-0.4,1.1l0.2,0.5l-1.8,0.3l-3.2,2.6L602,249l-1.4-0.8l-3.5,0.9l-0.1,0.8l1.2,3.1l-1.4,1.9l-1.2,0.5l-0.5,0.9
		l-0.3,2.6l-1.1,0.9l-1.1-0.2l-0.5,0.5l-0.8,2l0,3.1l-0.4,1l-1.4,0.9l-0.9-0.7l-1.2,0l-1.5-0.7l-0.6-1.8l-1.9-0.7l-0.4,0.3l0,0.5
		l0.8,0.7l-0.6,0.3l-0.9-0.4l-0.4,0.3l0.5,1.4l-1.1,0.7l0.1,2.4l-1.1,0.6v0.8l-0.2,0.4l-0.2-1l-1.6,0.2l-1.4-1.7l-0.5-0.1l-1.7,1.5
		l-1.6,0.7l-1.1,2.9l-0.8-1.1l-2.8-0.8l-1.1-0.6l-1.1-0.2l-1.8,0.9l-0.6-1l-0.6-0.2l-0.5,0.6l0.6,1.9l-0.3,0.8l-0.3,0.1l0-1.2
		l-0.4-0.4l-0.6,0l-1.5,0.8l-1.4-0.8h-0.8l-0.5,1l0.7,1.5l-0.5,0.7l-1.2-0.4l-0.1-0.5l-0.5-0.4l0.5-0.6l-0.3-3.1l1-0.8l-0.1-0.6
		l-0.4-0.2l0.7-0.5l0.2-0.6l-1.2-1.5l0.5-1.2l0.3,0.2l1.4-0.5l0.3-1.8l0.5-0.4l0.4-0.9l-0.1-0.8l1.5-1.1l0.1-0.7l-0.4-0.9l0.6-0.9
		l0.1-1.3l0.9-0.5l0.4-1.9l-1.1-2.5l0.1-1.9l-0.9-0.9l-0.6-1.5l-1-0.8l0-0.6l0.9-1.4l-0.6-2.2l1.3-1.3L554.7,189.8L554.7,189.8z"/>
	<path class="st0" d="M493.9,225.7l0.9-0.4l0.4-0.7l-0.2-2.3l-0.7-0.9l0.2-0.4l0.7-0.7l2.4-1l0.7-0.6l0.6-1.7l0.2-2.1l1.7-2.5
		l0.3-0.9l0-1.2l-0.6-1.9l-2.2-1.9l-0.1-1.8l0.7-2.4l0.5-0.4l4.6-0.9l0.8-0.4l0.8-1.1l2.5-1l1.4-1.6l0.4-3.3l1.4-1.5l0.3-0.7
		l0.3-4.4L511,185l-4-2.5l-0.3-1.5l-0.5-0.8l-3.6-2.5l44.6-4.6l0,2.6l0.6,2.6l1.4,2.5l1.3,0.9l0.8,2.6l1.3,2.7l1.4,1.9l6.6,51.5
		l-1.2,1.1l-0.1,0.7l0.7,1.8l-0.8,1.1l0,1.1l1.2,1.1l0.6,1.4l0.9,0.8l-0.1,1.8l1.1,2.3l-0.3,1.5l-0.9,0.6l-0.2,1.5l-0.6,0.9l0.3,1.2
		l-1.5,1.1l-0.2,0.4l0.3,0.7l-0.9,1.2l-0.3,1.2l-1.6,0.7l-0.6,1.7l0.2,0.8l1,0.8l-1.3,1.1l0.4,0.8l-0.5,0.2l-0.1,0.5l0.4,2.9
		l-1.2,0.2l0.1,0.5l0.9,0.8l-0.5,0.2l0,0.6l0.8,0.3l0,0.4l-1.3,2l-0.2,1.2l0.6,1.2l0.7,0.6l0.4,1.1l-3.3,1.2l-1.2,0.8l-1.2,0.2
		l-0.8,1l-0.2,2l1.7,2.8l0.1,0.5l-0.5,1.2l-1,0l-6.3-2.4l-1.1-0.1l-1.6,0.6l-0.7,0.7l-1.4,3l0.1,0.7l-1.2-1.2l-0.8,0.1l-0.3,0.5
		l0.6,1.1l-1.2-0.8l0-0.7l-1.6-2.2l-0.4-1.1l-0.8-0.4l0-0.5l0.9-1.4l0.2-1l-0.3-1l-1.4-2l-0.5-3.2l-2.3-1l-1.5-2.1l-2-0.8l-1.7-1.3
		l-1.6-0.1l-1.8-1l-2.3-1.8l-2.3-2.4l-0.4-2l2.4-6.9l-0.2-2.3l1-2.1l-0.4-0.8l-2.7-1.4l-2.6-0.7l-1.3,0.4l-0.9,1.4l-0.9,0.1
		l-1.3-1.9l-0.4-1.5l0.2-0.9l-0.5-0.9l-0.3-1.6l-0.8-1.4l-0.9-0.9l-4.1-2.5l-1-1.6l-4.5-3.5l-0.7-1.9l-1-1.2l0-1.6l-1-1.5l-0.8-3.5
		l0.1-2.9L493.9,225.7L493.9,225.7z M539.4,295.6L539.4,295.6L539.4,295.6L539.4,295.6L539.4,295.6z"/>
	<path class="st0" d="M755.5,165.4l1.3-1.6l0.5-1.6l0.5-0.6l0.5-1.4l0.1-2.1l0.7-1.4l0.9-0.7l14.1,4.2l-0.4,6l-0.3,0.6l-0.2-0.4
		l-0.7,0.1l-0.3,1.2l-0.8,1l0.1,1.4l-0.5,0.6l0.1,1.7l0.6,0.6l1.2,0.3l1.4-0.4l2.3,0.2l0.9,6.9l-0.6,0.4l0.2,0.7l-0.6,0.9l0.5,0.6
		l-0.2,0.6l0.5,1.9l-0.5,2l0.1,0.6l0.6,0.6l-0.4,1.1l-0.5,0.4l0,0.6l-0.9,1.1l0,0.5l-1.1,0.1l0.1,1.2l0.6,0.8l-0.8,0.6l-0.2,1.1
		l1,0.8l-0.3,0.3l-0.2-0.4l-0.5-0.2l-0.5,0.2l-0.4,1.5l-1.3,0.6l-0.2,0.4l0.5,0.6l0.8,0.1l-0.7,1.3l-0.3,1.5l-0.7,0.6l0.2,0.5l0.4,0
		l-0.9,1.6l0.1,0.9l-1.7,1.7l-0.1-1.3l0.4-2.4l-0.1-0.9l-0.6-0.8l-0.9-0.3l-1.1,0.3l-0.8-0.4l-1.5,0.9l-0.3-0.7l-1.6-1l-1,0
		l-0.7-0.7l-0.7,0.1l-3.2-2l-0.1-1.7l-1-0.9l0.5-0.7v-0.9l0.4-0.8l-0.1-0.7l0.5-1.2l1.2-1.2l2.6-1.5l0.5-0.9l-0.4-0.9l0.5-0.4
		l0.5-1.4l1.2-1.7l2.5-2.2l0.2-0.7l-0.5-0.8l-4.3-2.8l-0.8-1.1l-0.9,0.2l-0.5-0.3l-1.2-2.5l-1.6,0l-1-3.4l1-1l0.4-2.2L755.5,165.4
		L755.5,165.4z"/>
	<path class="st0" d="M318.1,239.7l-1.2,65.9l-29.3-0.9l-29.4-1.4l-29.3-2l-32.2-2.8l8.3-87.1l27.8,2.4l28.2,1.9l29.6,1.5l28,0.9
		L318.1,239.7L318.1,239.7z"/>
	<path class="st0" d="M694.5,219.8l-2-10.1l19.8-4.5l-0.7,1.3l-0.9,0.1l-1.5,0.8l0.2,0.7l-0.4,0.5l0.2,0.8l-1.8,0.5l-1.5,0l-1.1-0.4
		l0.2-0.4l-0.3-0.5l-1.1-0.3l-0.5,1.8l-1.6,2.8l-1.4-0.4l-1,0.6l-0.4,1.3l-1.6,1.9l-0.4,1l-0.9,0.4L694.5,219.8L694.5,219.8z
		 M714.6,204.7l36.9-9.1l8.5,26.2l0.5,0.3l1.1-0.2l8.2-2.1l-0.9,0.5l0.3,0.6l0.5,0l0.4,0.8l0.5-0.1l-0.4,2l-0.1-0.3l-0.5,0.1
		l-0.7,0.9l-0.2,2.7l-0.6,0.2l-0.4,0.7l0,1.7l-3.6,1.4l-0.5,0.7l-2.2,0.4l-0.6,0.6l-0.3-1.1l0.5-0.3l0.9-1.8l-0.4-0.5L761,229
		l0.1-0.5l-0.4-0.4l-2.3,0.6l0.3-0.6l1.2-0.8l-0.2-0.7l-1.4-0.2l0.4-2.2l-0.2-1l-0.9,0.2l-0.5,1.8l-0.3-0.7l-0.6-0.1l-0.4,0.5
		l-0.5,1.4l0.5,1l-2.9-2.1l-0.4-0.2l-0.6,0.4l-0.7-0.8l0.3-1.7l0.8-0.6l-0.1-1.4l2.5,0.2l0.8-1.5l-0.3-1.4l-0.7,0.3l-0.3,1.3l-1-0.2
		l-0.4-1.1l-0.5-0.3l-0.5,0.2l-0.2-0.7l-0.6,0.1l1-0.8l0.2-1l-0.5-0.6l-0.8,0.8l-0.2-0.6l1.1-0.9l-0.2-0.6l-0.5-0.1l-0.5-0.8
		l-0.4,0.2l-0.5-0.4l0.8-1l-0.2-1l0.8-1.9l-0.1-0.9l-0.5,0l-0.7,0.7l-0.6-0.2l-0.5,0.4l-0.2,1l-1-1.2l0.8-3.5l0.6-0.5l0.1-0.7
		l3.9-0.8l0.5-0.4l-0.2-0.7l-0.5-0.1l-2.4,0.6l0.9-1.6l1.4-0.1l0.3-0.5l-1-0.7l0.4-1.9l-0.6-0.3l-0.5,0.4l-0.9,2l0.2-2l-0.6-0.3
		l-0.9,1.4l-1.4,0.3l-0.3,1.6l0.4,0.5l0.7,0.1l-1.5,1.9l-0.2-1.6l-0.6-0.4l-0.6,0.7l0.1,1.4l-0.8-0.3l-1.2,0.6l0,0.7l1,0.3l-0.4,0.5
		l-0.8,0.2l0,0.3l-0.4,0l-0.3,0.6l1.2,1.2l-0.3,0.2l-1.5-0.8l-1.3,0.5l0.2,0.7l0.8,0.1l1.3,1.2l1.5,0.6l0.1,0.3l-0.4,0.3l-1.4,0.5
		l-0.1,1.2l1.8,1l0.5,0.6l-0.7-0.4l-1,0.3l0.2,0.6l0.9,0.5l-0.3,0.5l0.4,1.1l0.6,0.1l-0.6,1.3l0.1,0.4l0.6,0.6l1.3,4.2l2.8,2.6
		l0,0.4l-0.4,0.5l-0.7-1.2l-1.2-0.2L745,225l-1.5-3.6l-0.7-0.7l-0.3,0.7l1.2,3.9l0.7,0.9l1.5,0.8l1.3,0.3l1.5,1.4l0.9-0.3l0.4,1.3
		l1.5,1.5l0.1,1.1l-1.1-0.7l-0.3-1.2l-0.6-0.4l-0.5,0l-0.1,0.4l0.3,0.8l-0.7,0.1l-0.6-0.7l-1.2-0.4H745l-0.9,0.4l-0.5-0.2l-1-2.2
		l-1.3-0.7l-0.5,0.1l0,0.5l1.2,2l-0.7-0.1l-0.3-0.5l-0.9-0.4l-1.6-2.6l-0.5-0.1l-0.4,1.5l-0.2-0.7l-0.6,0l-0.4,0.5l0.3,0.7l-0.2,0.7
		l-0.6,0.6l-0.6-0.3l-0.6-1.9l0.2-1.1l0.7-0.4l0.2-0.5l-0.4-0.5l0.8-0.5l0.2-1.6l1.1-0.4l0.1-0.7l-0.3-0.4l0.2-0.4l-0.4-0.4l0-0.7
		l1.3-2.2l-0.1-0.5l-2.7-1.7l-0.6,0.1l-0.7,1.2l-1.8-0.4l-1.1-1.2l-3-0.1l-1.2-0.9l0.6-1.4l-0.4-1l-1.2-0.3l-0.9-0.7l-2.7,0.1
		l-0.4-0.2l-0.1-1.3l-1-0.6l0.1-1.2l-0.5-0.3l-0.5,0.2l-0.2-0.6l-0.5-0.1l0.3-0.8l-0.5-0.6l-0.7-0.1l-1.8,0.7L714.6,204.7
		L714.6,204.7z M743.9,212.4h0.3l0.9,0.2l-0.4,0.4L743.9,212.4L743.9,212.4z M750.6,218.3v0.2l-0.1-0.1L750.6,218.3L750.6,218.3z
		 M756.8,225.8l0,0.3l-0.2-0.1L756.8,225.8L756.8,225.8z M760.8,229.3l-0.2,0.3l-0.1,0.1l0-0.2L760.8,229.3L760.8,229.3z
		 M751.4,220.7L751.4,220.7l-0.2,0L751.4,220.7L751.4,220.7z M751,220.9l-0.3,0.6l-0.2,0.1l0.2-0.6L751,220.9L751,220.9z
		 M749.9,217.2l-0.6,0.3l-0.6-0.4l0-0.5l0.2-0.2l0.7,0.3L749.9,217.2L749.9,217.2z M748.3,213.3l-0.2,0.5l-0.8,0.4l0.2-1.2
		L748.3,213.3L748.3,213.3z"/>
	<path class="st0" d="M774.2,120.2l30-8l1.5-1.8l0.3-1.5l1-0.3l0.6-1l1.2-1.1l1.3-0.1l-0.4,1.1l1,0.3l0.2,1.6l1.2,0.6l-0.1,0.3
		l0.4,0.3l1.3,0.2l-0.2,0.6l-2.3,1.8l0,1.1l0.5,0.2l-1.1,1.4l0.2,1.1l-1,1l0.6,1.4l1.4,0.4l0.5,0.6l1.4-0.6l0.3-0.6l1.2,0.1l0.8,0.5
		l0.2,0.7l1.8,1.4l-0.1,1.2l-0.6,0.6l0.1,0.6l1.2,0.7l1.7-0.2l0.7,1.2l0.2,1.1l0.9,0.7l1.3,0.4l1.5-0.1l0.4,0.4l1-0.2l2.9-2.3
		l0.8-1.1l0.5,0l0.6,1.9l-3.3,1.5l-0.9,0.8l-2.8,1l-0.5,1.6l-1.9,1.4l-0.8-2.6l0.1-1.3l-0.5-0.3l-0.5,0.4l-0.9-0.1l-0.3,0.5l0.2,0.9
		l-0.3,0.8l-0.4,0.1L818,132l-0.6-0.2l-0.5,0.5l0.2,1.9l-0.9,0.9l-0.6-0.8l-0.5,0l-0.1,0.6l-0.3,0l-0.7-2l-1-0.4l0.4-2.5l-0.2-0.4
		l-0.8,0.4l-0.3,1.5l-0.7,0.2L810,131l-0.8-2.1l-0.8-0.2l-0.8-2.1l-0.5-0.2l-6.1,2l-0.3-0.1l-14.8,4.2l-0.3,0.5l-0.5-0.3l-0.9,0.2
		l-9.5,2.4l-0.2-0.2L774.2,120.2L774.2,120.2z M814.5,110.3l0-0.4l-0.1-0.5l0.5,0.2L814.5,110.3z M830.1,123l-0.1-0.4l0.2,0.3
		L830.1,123L830.1,123z M829.1,121.3h-0.8l-0.5-1.2l0.6,0.4C828.3,120.6,829.1,121.3,829.1,121.3z M825.3,119.7l-0.1,0.1l-0.1-0.1
		l0,0L825.3,119.7L825.3,119.7z"/>
	<path class="st0" d="M562.5,337.6l25.2-2.9l19.4-2.8l14,43.3l1,2.5l1.2,1.6l0.6,1.9l2.2,2.5l0.9,1.8l-0.1,2.1l1.8,1.1l-0.2,0.7
		l-0.6,0.1l-0.2,0.7l-1,0.8l-0.2,2.3l0.2,1.5l-0.8,2.3l-0.1,1.8l1.1,2.9l1.2,1.5l0.5,1.6l-0.1,5l-0.2,0.8l0.5,2l1.3,1.2l1.1,2.1
		l-47.6,6.9l-0.4,0.6l-0.1,3l2.6,2.8l2,1l-0.3,2.7l0.6,1.6l0.4,0.4l-0.9,1.7l-1.2,1l-1.1-0.8l-0.3,0.5l0.7,1.5l-2.8,1l0.3-0.6
		l-0.5-0.9l-1-0.8l-0.1-1.1l-0.6-0.2l-0.5,0.6l-0.3-0.1l-0.9-1.5l0.4-1.7l-1-2.2l-1.3-0.6L577,430l-0.6-0.2l-0.4,0.6l0.2,0.4
		l-0.8,3.1l0,5.1h-0.6l-0.2-0.7l-2.2-0.4l-1.6,0.3l-5.5-32l-1-66.5l0-0.4l-1.1-0.6L562.5,337.6L562.5,337.6z"/>
	<path class="st0" d="M422.5,225.7l24.7-0.7l18.9-1.4l22.1-2.6l0.4,0.4l0.4,0.9l2.4,1.6l0.3,0.7l1.2,0.9l-0.5,1.4l-0.1,3.2l0.8,3.6
		l1,1.4l0,1.6l1.1,1.4l0.5,1.6l5,4.1l1.1,1.7l4.9,3.3l0.7,1.1l0.3,1.6l0.5,0.8L508,253l0.5,1.8l1,1.6l0.8,0.7l1,0.2l0.8-0.6l0.8-1.4
		l0.6-0.2l2.4,0.6l1.7,0.8l0.8,0.8l-1,2l0.3,2.3l-2.4,6.9l0,1l0.7,1.9l4.7,4l2,1l1.5,0.1l1.7,1.3l1.9,0.8l1.5,2.1l2,0.8l0.4,3
		l1.7,2.9l-1.1,1.9l0.2,1.4l0.8,0.3l2.3,4.2l1.9,0.9l0.5-0.3v-0.6l0.9,1.1l1.1-0.1l0.1,1.9l-0.4,1.1l0.5,1.6l-1.1,3.9l-0.5,0.1
		l-1.4-1.1l-0.7,0.1l-0.8,3.3l-0.5,0.7l0.1-1.1l-0.6-1.1l-1-0.2l-0.7,0.6l0,1l0.5,0.7l0,0.7l0.6,1.3l-0.2,0.4l-1.2,0.4l-0.2,0.4
		l0.2,0.5l0.9,0.8l-1.7,0.4l-0.1,0.6l1.5,2l-0.9,0.8l-0.6,2.1l-10.6,1.4l1.1-2.3l0.9-0.6l0.2-0.9l1.4-1l0.2-1l0.6-0.4l0.3-0.6
		l-0.2-2.3l-1-0.8l-0.2-0.8l-1.1-1.2l-39.2,3.6l-37.7,2.6l-3.2-58.2l-1-0.6l-1.2,0l-1.5-0.7l-0.2-0.9l-1.1-1.3l-0.4-1.6l-0.5-0.1
		l-0.3-0.6l-1.1-0.7l-1.4-1.8l0.7-0.5l0.1-1.2l1.1-1.3l0.1-0.8l1,0.2l0.6-0.4l-0.2-2.2l-1-0.7l-0.3-1.1l-1.2,0l-1.3,1l-0.8-0.7
		l-0.7-0.2l-2.7-2.4l-1-0.3l0.1-1.6l-1.3-1.7l0.1-1l-0.4-0.4l-1-0.2l-0.6-0.9l-0.8-0.3l0.1-0.5l-1.2-2.9v-0.7l-0.4-0.5l-0.9-0.3
		L422.5,225.7L422.5,225.7z M537.6,294.7l-0.1-0.1l-0.1-0.1l0.1,0L537.6,294.7z"/>
	<path class="st0" d="M397.5,67.9l-0.4-1.4l0-1.2l-0.5-0.5l-1.4-3.8v-3.2l-0.5-2l0.3-1.1l-0.6-2.3l0.7-2.6l-2.1-6.9l29.5-1.2
		l0.5-0.8l-0.4-7.1l2.8,0.2l1.2,0.8l0.4,2.7l1.7,5.3l0.1,2.3l0.5,0.9l1.5,1l1.3,0.5l3.2-0.4l0.4,0.8l0.5,0.4l5.2,0l0.4,0.2l0.5,1.6
		l0.7,0.6l4.3-0.8l0.8-0.7l0.1-0.7l0.7-0.3l1.7-0.4l4,0l1.4,0.7l3.4,0.7l-1,0.8v0.8l0.5,0.5l2.9-0.1l0.5,2.1l1.6,2.3l0.7,0l1-0.8
		l0-1.7l2.7-0.5l1.4,2.2l2,0.8l1.5,0.2l0.5,0.6l0,0.8l0.6,0.3l1.3,0.1l0.2,0.8l0.4,0.1l1.2-0.2l1.1,0.2l2.2-0.8L484,55l2.5-1.5
		l1.2,2.5l1,0.5l2.2-0.7l0.9,0.4l6-1.3l0.6,0.2l1.3,1.6l1.2,0.6l0.6,0l1.6-0.8l1.3,0.1l-0.9,1l-4.7,3.1l-6.3,2.8l-3.7,2.5l-2.2,2.5
		l-1,0.6l-6.6,8.7l-1,0.6l-1.1,1.6l-2,2l-4.2,3.6l-0.9,1.8l-0.5,0.4l-0.1,1l-0.8,0l-0.5,0.5l1,12.2l-0.8,1.2l-1,0.1l-0.5,0.8
		l-0.8,0.2l-0.6,0.8l-2.1,1.2l-0.9,1.9l0.1,0.7l-1.7,2.4l0,2.1l0.4,0.9l2.1,0.4l1.4,2.5l-0.5,1.9l-0.7,1.2l0,2.1l0.5,1.3l-0.7,1.2
		l0.9,3.1l-0.5,4.1l4,3l3,0.4l1.9,2.2l2.9,0.5l2.5,1.9l2.4,3.6l2.6,1.8l2.1,0.1l1.1,0.7l0.9,0.1l0.8,1.4l1.3,0.8l0.3,2l0.7,1.3
		l0.4,4.8l-40.6,3.2l-40.6,2.1l-1.5-39l-1.5-2.1l-2.6-0.8l-0.9-1.9l-1.5-1.8l0.2-0.7l2.8-2.3l0.9-2l0.4-2.5l-0.4-1.6l0.2-1.9
		l-0.2-1.5l-0.5-1l-0.2-2.3l-1.8-2.6l-0.5-1.1l-0.2-2.2l-0.7-1l0.1-1.7L401,90l0.5-2.7l-1.1-1.8l-0.5-8.3l-0.4-0.8l0.1-3.9l-1.6-3.9
		L397.5,67.9L397.5,67.9z"/>
	<path class="st0" d="M-43.1,175.5l0.9-1.1l1,0.2l1.2-2.1l0.9,0.1l0.6-0.2l0.4-0.6l-0.3-0.8l-0.7-0.4l1.5-2.7l0.1-0.8l-0.4-0.5
		l0.1-1.3l0.8-0.9l1.2-2.2l1.3-3l0.4-2.1l-0.3-1l0-3.9l-1.2-1.2l0.9-1.2l0.9-2.8l32.7,8.1l32.6,7.3l-13.7,64.7l25.4,34.7l36.6,51.1
		l13.3,17.7l-0.2,2.7l0.7,0.9L94,336l0.9,0.6l0.8,2.6l-0.1,0.9l0.6,1.5l-0.2,1.4l3.8,3.8l0,0.5l-1.9,1.5l-3.1,1.3l-1.2,2l-1.7,1.1
		l-0.3,0.8l0.4,1l-0.5,0.5l-0.1,0.9l0.1,2.3l-0.6,0.7l-0.6,2.4l-2,2.5l-1.6,0.1l-0.4,0.5l0.3,0.9l-0.6,1.3l0.5,1.1l0,1.2l-0.8,2.7
		l0.6,1l2.7,1.1l0.3,0.8l-0.2,2.4l-1.2,0.8l-0.4,1.4l-2.3-0.6l-1.3,0.6l-43.4-3.4l0-0.8l0.4-0.1l0.3-0.6l-0.1-1.4l-1.1-1.6l-1.1,0
		l0.2-1.1l-0.2-1.1l0.3-0.1l0.4-0.9l0.1-2.5l-0.4-2.6l-2.5-5.7l-3.5-4.1l-1.3-2l-2.4-2.1l-2.1-2.9l-2-1l-1.2,0.2l-0.3,0.9l-1.6-1
		l-0.1-0.4L23,345l0.2-1l-0.5-2.6l-1-2l-0.7-0.6l-2.2-0.4l-1.5-0.1l-1.1,0.3l-0.5-0.6l-1.7-0.6l-3-2l-1.2-1.4l-0.5-2.6l-0.9-0.7
		l-1.8-2.2l-1.7-1.3l-1.9-0.5L2,326.9l-1.1-0.7l-1.5-0.1l-2-1.5l-2.3-0.8l-5.7-0.7l-0.4-1.7l-1-0.9l-0.9-0.4l1.3-2.6l-0.3-1.4
		l0.8-2.2l-0.7-1.3l1.2-2.4l0.3-2.4l-1-1.2l-1.3-0.3l-1.3-1.4l-0.1-0.8l1.4-1.4l-0.5-2.3l-0.3-0.5l-1.7-0.8l-1.9-4.3l-1.8-1.2
		l-0.3-2.6l-1.6-2.6l-0.2-2.8l-1-0.8l-1.1-3.4l-2.2-2.3l-0.8-1.6l0-3.9l0.5-1.5l-0.5-0.6l0.5-0.5l0.6,0.7l0.6-0.1l0.8-0.6l0.9-1.6
		l0.8,0l0.1-0.5l-0.5-0.5l0.4-0.9l0-0.9l-0.5-2.2l-0.6-1.2l-0.6-0.4l-0.9,0.2l-2-0.4l-1.5-1.8l-0.9-2.1l-0.5-0.4l-0.3-1.2l-0.5-0.5
		l0-1.1l0.9-2.3l-0.2-2.9l-0.9-1.3l1.1-2.7l0.2-2.3l1.3-0.2l0.2,1.5l-0.6,0.3l-0.1,2.7l1.7,1.2l0.7,1.4l1,0.7l0.4,1l0.9,0.4l0.9-0.4
		l-0.2-1.2l-0.7-0.5l-0.4-1.5l0.1-2l-0.5-1.3l-0.4,0l-0.1-0.1l0.6-0.4v-0.3l-1.6-1.2l0.7-0.7l-0.2-1.9l-0.9-0.4l-0.3-0.6l1.1-0.7
		l1,0l1-0.7l1.2,1l2.6-0.1l5,2.2l0.5-0.2l0-0.6l0.6-0.7l-0.3,0.8l0.4,0.8l0.8-0.1l0.3-0.5l1.3,1.6l0.7-0.2l0-0.4l-0.5-1.1l-1-0.7
		l-0.3-0.8l-0.7-0.4l-1.1-0.1l0.3-0.6l-0.2-0.5L-16,240l-0.7-0.3l-0.8,0.2l-0.2-0.6l-1.1-0.2l0.3-0.7l-0.4-0.7l-1.1-0.2l-1.9,1.6
		l-0.3-0.5l-1.4-0.5l-0.4-0.9l-1.4-1.4l-2.6,0.5l0.1,0.9l-0.7,1.2l0.5,0.7l-0.9,0.9l-0.1,2.3l-0.4-0.1l-1.5-2.1l-1.2-0.3l-1.2-2.4
		l-1.4-1.2l0.1-0.7l-0.7-0.2l0.7-1.2l0.9,2.1l0.4,0.2l0.3-0.4l-1.8-5.6l-0.4-0.6l-0.6-0.2l0.2-0.8l-0.5-2.3l-2.7-3.3l-1-3l-3.4-6.2
		l0-0.4l1.1-1.4l0.1-0.9l-0.5-6.8l0.6-1.9l1.3-2l0.4-3l-0.4-1.2l0.2-2.4l-0.7-1l-1.2-3.7l-0.6-0.5l0.1-0.9l-0.3-0.9l-1-0.9l-2-3.3
		l0.5-1.2l-0.3-2.7L-43.1,175.5L-43.1,175.5z M-12.8,240.8L-12.8,240.8L-12.8,240.8L-12.8,240.8L-12.8,240.8z M-0.5,326.4
		L-0.5,326.4L-0.5,326.4L-0.5,326.4L-0.5,326.4z M-14.5,240.6l-0.1,0.1l-0.6,0.2l-0.2-0.1L-14.5,240.6L-14.5,240.6z"/>
	<path class="st0" d="M406.8,162.4l42.8-2.2l40.5-3.2l1,2.5l2,1l0.1,0.6l-0.9,1.8l-0.2,1l0.9,5.1l0.9,1.3l0.4,1.8l1.5,1.7l4.9,0.9
		l1.3,2l-0.3,1l0.3,0.7l3.6,2.4l0.8,2.4l3.8,2.3l0.6,1.7l-0.3,4.2l-1.6,2l-0.5,1.9l0.1,1.3l-1.3,1.4l-2.5,1l-0.9,1.2l-0.5,0.2
		l-4.6,0.8l-0.9,0.7l-0.6,1.7l-0.2,2.6l0.4,1.1l2,1.5l0.5,2.6l-1.9,3.2l-0.2,2.2l-0.5,1.4l-2.9,1.4l-1,1l-0.2,1l0.7,0.9l0.2,2.1
		l-0.6,0.2l-1.3-0.8l-0.3-0.8l-1.3-0.8l-0.3-0.5l-0.9-0.4l-0.3-0.8l-1-0.7l-22.3,2.6l-15.1,1.2l-7.6,0.5l-20.8,0.5l-0.2-1.1
		l-1.3-0.7l-0.3-0.7l0.6-1.2l-0.2-0.9l0.2-1.4l-0.4-2.2l-0.6-0.7l0.1-3.6l-1-0.5l0-0.9l0.7-1l0-0.4l-1.3-0.6l0.3-2.5l-0.4-0.4
		l-0.9-0.2l0.2-0.8l-0.3-0.6l-0.5-0.2l-0.7,0.2l-0.4-2.8l0.5-2.4l-0.2-0.7l-1.4-1.7l-0.1-1.9l-1.8-1.5l-0.4-1.7l-1.1-0.9l0-2.2
		l-1.1-1.9l0.2-1.7l-0.3-1.1l-1.4-0.7l-0.9-2.2l0-0.6l-1.8-1.8l0.6-1.6l0.5-0.5l0.7-2.7v-1.7l0.5-0.7l0.2-1.2l-0.5-2.2l-1.3-0.3
		l0-0.7l0.5-0.6v-1.7l-1-1.4L406.8,162.4L406.8,162.4z"/>
	<path class="st0" d="M566.1,186l1.8-2.2l0.7-1.6l1.2-4.4l1.4-3.1l1-5.1l0.1-5.4l-0.9-5.5l-2.4-5.2l0.6-0.5l0.3-0.8l-0.6-0.4
		l-1.1,0.6l-3.8-7l-0.2-1.1l1.1-2.7l0-1l-0.7-3.1l-1.3-1.6l0-0.6l1.7-2.7l1.2-4.1l-0.2-5.3l-0.8-1.6l1.1-1.2l0.8,0l0.6-0.5l-0.3-3.5
		l1.1-0.1l0.7-1.4l1.2,0.5l0.7-0.3l0.8-2.6l0.8-1.2l0.6-1.7l0.5-0.2l-0.6,0.9l0.6,1.7l-0.7,1.8l0.7,0.4l-0.5,2.6l0.9,1.4l0.7-0.1
		l0.5,0.6l0.6-0.2l0.9-2.3l0.7-3.5l-0.1-2.1l-0.8-3.4l0.6-1l2.1-1.6l2.7-0.6l1-0.6l0.3-0.6l-0.2-0.5l-1.8-0.1l-1-0.9l-0.5-2l1.8-3
		l-0.1-0.7l1.7-0.2l0.7-0.9l4.2,2l0.8,0.1l2-0.4l1.4,0.4l1.2,1l0.5,1.2L595,99l2.4-0.3l1.7,1l1.9,0.1l0.8,0.6l3.3,0.4l1.1,0.8l0,1.1
		l1,1.3l0.6,0.2l0.4,0.9l-0.1,0.6l-0.7-0.2l-0.9,0.6l-0.2,1.8l0.8,1.3l1.6,1l0.7,1.4l0.7,2.3l-0.1,1.7l0.8,5.6l-0.1,0.6L610,122
		l-0.5,1l-0.7,0.1l-0.8,0.8l-0.2,4.5l-1.1,0.5l-0.2,0.8l-1.9,0.4l-0.7,0.6l-0.6,2.6l0.3,0.4l-0.2,0.5l0.2,2.6l1.4,1.3l2.9,0.8
		l0.9-0.1l1.1-1.2l0.6-1.4l0.6,0.2l0.4-0.2l1-3.6l0.6-1.1L613,131l1-1.4l1.4-0.4l1.1-0.7l0.8-1.1l0.9-0.4l2.1,0.6l1.1,0.7l1,1.1
		l1.2,2.2l2,5.9l0.8,1.6l1,3.7l1.5,3.6l1.3,1.7l-0.3,3.9l0.5,2.5l-0.5,2.8l-0.4,0.4l-0.6-1.2l0-0.9l-1.5-0.5l-0.5,0.1l-1.5,1.4
		l-0.1,0.8l0.5,0.7l-0.8,0.6l-0.3,0.8l0.3,2.9l-0.5,0.8l-1.6,0.9l-1.1,1.9l-0.4,3.7l0.3,1.6l-0.3,0.9l-0.4,0.2l0,0.9l-0.6,0.3
		l-0.9,1.6l-0.5,1.3l0,1.1l-0.5,0.9l-20.5,4.2l-0.2-0.9l-0.5-0.3L566.1,186L566.1,186z M575.3,116L575.3,116l0.1-0.2l0,0L575.3,116
		L575.3,116z M575.6,115.1l-0.1-0.2l0.1-0.1V115.1z M497.3,88.2l4.9-2.4l3.5-3.6l5.8-1.4l1.4-0.8l2.4-2.7l1,0l1.5-0.7l1-2.2l2.8-2.8
		l0.2,1.7l1.8,0.6l0,1.4l0.7,0.1l0.5,0.6l-0.2,3.1l0.4,0.9l-0.3,0.5L525,81l0.7,0l1.1-2.2l1.1-0.9l-0.4,1.2l0.6,0.4l0.8-0.7l0.5-1.2
		l1-0.4l3.1-0.2l1.5,0.2l1.2,0.9l1.5,0.4l0.5,1.1l2.3,2.6l1.2,0.6l0.5,1.6l0.7,0.3l1.9,0.1l0.7-0.4l1.1-0.1l1.4-1.1l1,1.1l1.1,0.6
		l1-0.2l0.7-0.8l1.9,1.1l0.6-0.3l1.7-2.6l2.8-1.9l1.7-1.7l0.9,0.1l3.3-1.2l5.2-0.2l3.2-2.1l2.3-0.9l1.5-0.1l0,3.2l0.3,0.7l-0.4,1.1
		l0.5,0.7l0.7,0.3l0.9-0.4l2.2,0.7l1.1-0.4l1-0.9l0.7,0.5l0.2,0.7l0.8,0.2l1.2-0.8L587,78l0.7-0.3l1.1,0.2l1.3-1.2l0.5,0l0.2,0.1
		l-0.3,2l0.8,1.3l-1.1,0l-0.4,0.5l0.8,1.8l-0.9,1l0.1,0.4l0.8,0.8l1.4-0.4l0.6,0.5l0.6,0l0.2,1.2l1,0.9l1.5,0.5l-1.2,0.7l-5-0.2
		l-0.5,0.3l-1.3-0.2l-0.9,0.4l-0.7-0.8l-1.6-0.1l-0.6,0.5l-0.1,1.2l-0.5,0.8l0.4,2.1l-0.9-0.2l-0.9-0.9l-0.8-0.1l-2-1.7l-2.4-0.6
		l-1.6,0l-1-0.5l-2.9,0.5l-0.6,0.4l-1.2,2.5l-3.5,0.7l-0.6,0.8l-2.1-0.3l-2.8,0.9l-0.7,0.8l-0.6,2.5l-0.8,0.3l-0.8,0.9l-0.7,0.3
		l0.2-1.9l-0.7-0.9l-1,0.3L555,97l-1-0.4l-0.7,0.2l-0.4,0.4l0.1,0.8l-0.7,2l-1.2,0.6l-0.1-1.4l-0.5-1.1l0.3-1.7l-0.2-0.4l-0.7-0.2
		l-0.5,0.6l-0.6,2.1l-0.2,2.6l-1.1,0.9l-1.3,3l-0.6,2.7l-2.5,5.3l-0.7,0.7l0.1,0.9l-1.4-1.3l0.2-1.7l0.6-1.7l-0.4-0.8l-0.6-0.3
		l-1.4,0.8l-1.2,0.1l0-1.3l0.8-1.4l-0.4-1.3l0.3-1.1l-0.6-1l0.2-0.8l-1.9-1.6l-1.1-0.1l-0.6-0.4h-1.5l0.3-1.4l-0.9-1.4l-1.1-0.5
		l-2.2-0.1l-3.2-0.7l-1.5,0.6l-1.4-0.4L522,97l-4.6-1.9l-15.4-2.5l-2-3.4l-1.9-1l-0.8,0.3L497.3,88.2L497.3,88.2z M557.2,98.8v0.5
		l-0.5,0.3l-0.7,1.4l0.1,0.6l-0.7-0.6l0.9-2.1L557.2,98.8L557.2,98.8z M524.4,72.9l-0.5-0.3l-1.2,0.1l0-1.6l1-1l1.2-2.1l1.8-1.5h0.6
		l0.5-0.6l2.1-0.9l3.3-0.4l1.1,0.7l-0.5,0.4l-1.3-0.1l-2.3,0.8l0.2,0.9l0.7,0.1l-1.2,1l-1.4,1.9l-0.7,0.3l-0.4,1.4l-1.2,1.4l-0.7,2
		l-0.7-0.9l0.8-1l0.1-1.9l-0.8-0.2l-0.6,0.9L524.4,72.9L524.4,72.9z"/>
	<path class="st0" d="M607.9,331.8l22-3.6l20.7-3.9l-0.1,0.6l-2.6,3.4l-0.4,1.7l0.1,1.2l0.8,0.8l1.8,0.8l1,0.1l2.7,2l0.8,0.2
		l1.9-0.4l0.6,0.2l0.8,1.6l1.5,1.6l1,2.5l1.3,0.8l0.8,1.2l0.6,0.3l1,1.8l1.1,0.3l1.2,1l3.8,1.9l2.4,3.2l2.2,0.6l2.5,1.7l0.5,2.3
		l1.2,1l0.5-0.2l0.3,0.5l-0.1,0.6l0.8,0.7l0.8,0.1l0.6,1.2l5,1.9l0.4,1.8l1.5,1.7l1,2l-0.1,0.8l0.5,0.7l0.1,1.2l1,0.8l1.2,0.2
		l1.2,0.6l0.3,0.5l0.6,0.2l1.1,2.6l0.8,0.6l0.1,2.7l0.8,1.5l1.4,0.9l1.5-0.3l1.4,0.8l1.5,0.1l-0.6,0.8l-0.5-0.4l-0.5,0.3l-0.4,1
		l0.6,0.9l-0.4,0.5l-1.4-0.2l-0.8-0.5l-0.7,0.4l0.3,0.7l-0.5,0.5l0.4,0.6l1.4,0.2l-0.6,1.4l-1.4,0.3l-1.1-0.4l-0.6,0.2l0,0.8
		l1.5,0.6l-1.8,3.7l0.4,1.7l-0.5,1l0.8,1.5l-2.3-0.2l-0.5,0.3l0.1,0.6l0.5,0.3l2.8,0.2l1.1,0.7l0,0.3l-0.6,0.2l-0.9,2l-0.5-1.4
		l-0.5-0.1l-0.6,0.3l-0.2,0.8l0.3,1l-0.6,0.1l0,0.8l-0.3,0.2l0.1,0.5l1.3,1.1l-1.1,1l0.3,0.5l0.8,0.1l-0.4,0.9l0.1,0.9l-0.5,0.5
		l1.1,1.7l0,0.8l-0.8,0.3l-2.6-0.2l-4.1-1l-1.3,0.4L688,411l-0.7,0.3l-0.3,1.2l0.3,2.1l1,1.4l0.1,4.2l-2,0.4l-0.5-0.9l-0.1-1.3
		l-1.3-1.8l-49.2,5.1l-0.7-0.6l-0.9-2.7l-0.9-1.5l-0.6-0.4l0.2-0.7l-0.7-1.5l-1.8-1.8l-0.4-1.8l0.2-0.8l0.1-5.2l-0.6-1.8l-1.2-1.5
		l-1-2.6l0.1-1.6l0.8-2.4l-0.2-1.5l0.2-2.1l1.6-1.3l0.5-1.5l-0.5-0.6l-1.4-0.7l0.1-2.1l-1-1.9l-2.2-2.4l-1-2.8l-0.8-0.7l-0.2-1
		l-0.8-1.4L607.9,331.8L607.9,331.8z"/>
	<path class="st0" d="M82.3,384.3l0.4-1.8l1.3-1.3l0.5-1.1l0.5-0.2l1.7,0.6l1,0l0.5-0.5l0.3-1.2l1.3-1l0.2-2.7l-0.5-1.2l-0.8-0.7
		l-2.1-0.7l-0.3-0.6l0.8-2.4v-1.4l-0.5-1.2l0.6-0.9l-0.2-0.9l1.6-0.3l2.3-2.8l0.6-2.4l0.6-0.8l0-3.2l0.6-0.6l-0.3-1.4l1.7-1.1l1-1.9
		l3.2-1.3l2-1.6l0.3-0.5l-0.1-1l-3.2-3.5l-0.5-0.2l0.2-1.3l-0.7-1.5l0.1-0.9l-0.9-2.8l-0.8-0.6l-0.2-1.6l-0.7-0.8l0.2-3.5l0.6-0.9
		l-0.3-0.9l1-0.4l0.4-1.4l0.1-3.2l-0.8-3.7l0.8-2.5l-0.4-3l0.9-2.6l-0.8-1.9l0-0.9l0.8-1.9l2.5-0.6l1.8,1l1.4-0.2l1,2.2l0.8,0.7
		l1.5,0.1l1-0.5l1-2.3l0.9-1.2l2.6-16.9l42.4,5.8l42.6,4.7l-11.8,123.6l-36.9-4l-36.3-19L82.3,384.3L82.3,384.3z"/>
	<path class="st0" d="M120.2,57.5l0.7-0.1l0.3-0.4l-0.9-2l0.8-1l-0.4-1.3l0.1-1l-1.2-1.9l-0.2-1.5l-1-1.3l-1.2-2.4l3.5-20.6
		l43.7,6.7l43,5.2l42.7,3.8l43.1,2.5l-3.5,86l-28.1-1.5l-26.8-1.9l-26.8-2.4l-25.8-2.8l-0.4,0.3l-1.2,10.4l-1.5-2l0-0.9l-1.2-2.3
		l-1.2-0.7l-1.8,0.9l0,1.1l-0.7,0.4l-0.3,1.6l-2.4-0.4l-1.9,0.6l-0.9-0.8l-3.4,0.1l-2.4-1l-1.7,0.6l-0.8,1.5l-4.7-1.6l-1.3,0.4
		l-1.1,0.9l-0.3,0.7l-1.6-1.4l0.2-1.4l-0.9-1.7l0.4-0.4l0.1-0.6l-1.2-3.1l-1.4-1.2l-1.4,0.4l-0.2-0.6l-1.1-0.9l-0.4-1.4l0.7-0.6
		l0.2-1.4l-0.8-2.4l-0.8-0.3l-0.3-1.6l-1.5-2.5l0.2-1.5l-0.6-1.3l0.3-1.4L142,103l0.5-1l-0.2-0.7l-1.1-0.8l-0.1-0.6l-0.9-0.9
		l-0.8-0.4l-0.5,0.4l-0.1,0.7l-0.7,0.3l-1.1,1.2l-1.8,0.4l-1.2,1.1l-1.1-0.8l-0.6-1l-1.1-0.4l0-0.9l0.7-0.6l0.2-1.1l-0.6-1.6
		l0.9-1.1l1.1-0.1l0.8-0.8l-0.3-1.1l0.4-1.1l-0.9-0.8l0-0.8l0.7-1.3l-0.6-1.1l0.7-0.1l0.4-0.4l0-1.8l1.8-3.7l-0.1-1.1l0.9-0.6
		l0.6-3.2l-0.8-0.5l-1.8,0.4L134,77l-0.6-0.6l0.4-0.8l-0.6-1l-0.7-0.2l-0.7,0.3l-0.1-0.9l-1.7-1.6l0-1.8l-1.7-1.8l-0.1-0.7l-1.6-2.9
		l-1.1-1.3L125,62l-2.4-1.3l-0.9-2L120.2,57.5L120.2,57.5z"/>
	<path class="st0" d="M509.3,431.2l0.7-1l-1-1.8l0.2-1.6l-0.8-0.9l1.7-0.2l0.5-0.5l0.4-2.7l-0.8-1.8l1.6-1.8l0.2-3.6l0.7-2.3
		l1.9-1.2l1.2-2l1.4-1l0.3-0.8l0-1l-0.6-1l1.1-0.3l1-2.6l0.9-1.3l-0.2-0.9l-1.5-0.4l-0.3-1l-1.8-1l-0.1-2.1l-0.9-0.7l-0.5-0.8l0-0.4
		l1.1-0.3l0.5-0.7l-0.3-0.9l-1.4-0.5l0.2-1.8l1-1.5l-0.8-1.1l-1.1-0.3l-0.2-2.8l0.9-0.5l0.2-0.8l-0.6-2.5l-1.2-0.7l0.7-1.3l-0.1-2.2
		l-2-1.5l1.1-0.5l0.1-1.4l-1.3-0.9l1.6-2l0.9-0.3l0.4-0.7l-0.5-1.6l0.4-1.4l-0.9-0.9l2.8-1.1l0.6-0.8l-0.1-1.1l-1.4-1l1.4-1.1
		l0.6-1.8l0.9-0.2l0.3-1l-0.2-0.8l1.5-0.4l1.2-1.2l0.1-3.5l-0.5-1.5l0.4-1.8l0.7,0.1l0.7-0.3l0.4-0.9l-0.4-1.1l2.7-1.7l0.6-1.1
		l-0.3-1.3l36.4-4.1l0.9,1.3l0.8,0.5l1,66.5l5.5,33l-0.7,0.7l-1.5-0.3l-0.9-0.9l-1.3,1.1l-1.2,0.2l-2.2-1.3l-1.8-0.2l-0.8,0.4
		l-0.3,0.4l0.3,0.4l-0.6,0.4l-4,1.7l0-0.5l-1-0.5l-1,0l-0.6,1l0.8,0.6l-1.6,1.2l-0.3,1.3l-0.7,0.3l-1.3-0.1l-1.2-1.9l-0.1-0.9
		l-0.9-1.5l-0.2-1l-1.4-1.6l-1.2-0.5l-0.5-0.8l0.1-0.6l-0.7-0.9l0.2-2l0.5-0.9l0.7-3l-0.1-1.2l-0.4-0.3L509.3,431.2L509.3,431.2z"/>
	<path class="st0" d="M651.4,324.2l4.9-2.7l1,0l1.1-1.4l3.9-1.9l0.5-0.9l0.6,0.2l22.7-3.4l0.1,1.2l0.4,0.6l0.7,0l1.2-1.3l2.8,2.5
		l0.5,2.5l0.5,0.5l19.7-3.5l22.7,15.1l0,0.5l-2.5,2.2l-2.4,3.7l-2.4,5.7l-0.1,2.7l-1.1-0.2l0.8-2.7l-0.6-0.2l-0.8,0.9l-0.6,1.4
		l-0.1,1.5l0.8,1l1,0.2l0.4,0.9l-0.8,0.1l-0.4,0.6l-0.9,0l-0.2,0.7l0.9,0.5l-1.1,1.1l-0.1,1l-1.3,0.6l-0.5-0.6l-0.5-0.1l-1.1,0.9
		l-0.6,1.8l0.4,0.9l-1.2,1.2l-0.6,1.4l-1.2,1l-0.9-0.4l0.3-0.6l-0.5-0.7l-1.4,0.3l0.2,1.2l-0.5,0l0,0.8l2,1l-0.1,0.4l-0.9,0.9
		l-1.2,0.2l-0.2,0.5l0.3,0.5l-2.3,1.3l-1.4-0.8l-0.6,0.1l-0.1,0.7l1.2,0.8l-1.5,1.6l-0.7-0.8l-0.5,0.5v0.7l-1.5-0.4l-1.3-0.8
		l-0.4,0.5l0.2,0.5l-1.7,0.2l-0.4,0.4l-0.1,0.8l2.1,0l-0.3,0.5l0.4,0.2l1.9-0.1l0.1,0.2l-1,0.9l-0.3,0.8l0.6,0.5l0.9-0.5l0,0.2
		l-1.1,1.1l-1,0.4l-0.2-2l-0.7-0.3l-0.2-1.5l-0.9-0.1l-0.3,0.6l0.9,2.7l-1.1-0.7l-0.6-1l-0.4-1.8l-0.7-0.2l-0.5-0.6h-0.7l-0.3,0.6
		l0.8,1l0,0.7l1.1,1.8l0,0.9l1.2,1.2l-0.6,0.4l0,1l-1.2,3.6l-1.5-0.8l-1.5,0.3l-1-0.7l-0.5-1l-0.2-2.9l-0.9-0.8l-1.1-2.5l-1-1
		l-3.2-1.3l-0.5-2.6l-1.1-2.2l-1.4-1.6l-0.1-1.1l-0.8-1.2l-4.8-1.7l-0.6-1.3l-1.2-0.4l0-0.7l-0.5-0.9h-0.9l-0.7-0.6l0-1.2l-0.7-1.3
		l-2.7-1.8l-2.2-0.5l-2.4-3.1l-3.9-1.9l-1.2-1l-0.8-0.1l-1-1.8l-0.5-0.2l-0.9-1.2l-1.2-0.7l-1-2.4l-1.5-1.6l-1-1.9l-1.1-0.4
		l-1.9,0.4l-0.5-0.2l-2.8-2.2l-1.1,0l-2.2-1.3l0.4-2.2l2.6-3.3L651.4,324.2L651.4,324.2z M704.2,375.4l0.7-0.1l0.5,0.5l-1.2,1.9
		l0.3-1.2L704.2,375.4L704.2,375.4z"/>
	<path class="st0" d="M804.9,141.6l0.2-0.5l-0.5-2.2l-3.1-10l5.6-1.8l0.8,2.1l0.8,0.2l0.2,0.7l0.1,0.4l-0.8,0.2l0,0.3l0.5,1.4
		l0.6,0.5l-0.8,0.3l-0.3,0.6l0.9,1l-0.1,1.2l0.9,1.9l0,1.7l-0.3,0.7l-0.9,0.2l-3.6,2.4L804.9,141.6L804.9,141.6z M809.7,131.7
		l0.3,0.1l0,0.1l-0.2-0.1L809.7,131.7L809.7,131.7z M811.1,132.4l0.2,0.5l0,0.3l-0.2,0L811.1,132.4z"/>
	<path class="st0" d="M452.6,377.1l-1.4-38l-4.5-24l37.7-2.6l39-3.6l0.8,1.6l1,0.7l0.1,1.8l-0.8,0.6l-0.2,0.9l-1.4,0.9l-0.3,1
		l-0.8,0.5l-1.2,2.6l0,0.7l0.5,0.3l10.9-1.5l0.9,0.9l-1.2,0.4l-0.5,1l0.2,0.5l0.8,0.4l-3.6,2.7l0,0.8l0.8,1L529,328l0.6,1l-1.4,0.7
		l-0.1,1.4l-1.5,2.1l0.1,1.6l0.9,3.1l-0.2,0.3l-1.1,0l-0.3,0.3l-0.5,1.7l-1.5,1l0,0.5l0.8,0.9l0,0.6l-1.1,1.2l-2,1.1l-0.2,0.6l0.4,1
		l-0.2,0.3l-1.2,0l-0.4,0.7l-0.3,1.9l0.5,1.6l0,3.1l-1.3,1.1l-1.5,0.1l0.2,1.5l-0.2,0.5l-0.9,0.2l-0.6,1.8l-1.5,1.2l0,0.9l1.4,0.8
		l0,0.7l-1.2,0.3l-2.2,1.2l0,0.7l1,0.8l-0.5,1.1l0.5,1.4l-1.1,0.6l-1.9,2.6l0.5,0.7l1,0.5l0,0.6l-1,0.3l-0.4,0.6l0.5,0.8l1.6,1
		l0.1,1.8l-0.6,1l-0.1,0.8l1.3,0.8l0.5,2.2l-1.1,1l0.1,2.1l-51.4,4.1l-0.8-11.5l-1.2-0.9l-0.9,0.2l-0.8-0.4l-0.9,0.4l-1.2-0.3
		l-0.6,0.7l-0.5,0l-0.5-0.5l-0.8-0.1L452.6,377.1L452.6,377.1z"/>
</g>
<g>
	<circle class="st1" cx="443.2" cy="90.1" r="3.5"/>
	<circle class="st1" cx="513.3" cy="231" r="3.5"/>
	<circle class="st1" cx="565.2" cy="380.7" r="3.5"/>
	<circle class="st1" cx="570.2" cy="128" r="3.5"/>
	<circle class="st1" cx="358.5" cy="247.8" r="3.5"/>
	<circle class="st1" cx="587.1" cy="131.4" r="3.5"/>
	<circle class="st1" cx="446.6" cy="138.5" r="3.5"/>
	<circle class="st1" cx="616.7" cy="117.1" r="3.5"/>
	<circle class="st1" cx="36.5" cy="243.9" r="3.5"/>
	<circle class="st1" cx="607" cy="92.6" r="3.5"/>
	<circle class="st1" cx="422" cy="330.3" r="3.5"/>
	<circle class="st1" cx="526" cy="230.7" r="3.5"/>
	<circle class="st1" cx="609.6" cy="162.1" r="3.5"/>
	<circle class="st1" cx="239" cy="158.9" r="3.5"/>
	<circle class="st1" cx="588.8" cy="382.9" r="3.5"/>
	<circle class="st1" cx="232.5" cy="198" r="3.5"/>
	<circle class="st1" cx="434.6" cy="173.8" r="3.5"/>
	<circle class="st1" cx="254.4" cy="106.4" r="3.5"/>
	<circle class="st1" cx="191.4" cy="228.5" r="3.5"/>
	<circle class="st1" cx="196.5" cy="219.9" r="3.5"/>
	<circle class="st1" cx="379.2" cy="235.8" r="3.5"/>
	<circle class="st1" cx="581" cy="173.4" r="3.5"/>
	<circle class="st1" cx="58.9" cy="263.1" r="3.5"/>
	<circle class="st1" cx="438.1" cy="337.7" r="3.5"/>
	<circle class="st1" cx="560.4" cy="280.6" r="3.5"/>
	<circle class="st1" cx="48.2" cy="167.6" r="3.5"/>
	<circle class="st1" cx="215.2" cy="244.3" r="3.5"/>
	<circle class="st1" cx="423.2" cy="121.6" r="3.5"/>
	<circle class="st1" cx="429.2" cy="252.2" r="3.5"/>
	<circle class="st1" cx="456.6" cy="98" r="3.5"/>
	<circle class="st1" cx="450.9" cy="246" r="3.5"/>
	<circle class="st1" cx="24.8" cy="225.5" r="3.5"/>
	<circle class="st1" cx="580.2" cy="251.6" r="3.5"/>
	<circle class="st1" cx="16.8" cy="171.8" r="3.5"/>
	<circle class="st1" cx="462" cy="204.7" r="3.5"/>
	<circle class="st1" cx="585.9" cy="190.4" r="3.5"/>
	<circle class="st1" cx="368.1" cy="331.6" r="3.5"/>
	<circle class="st1" cx="553.9" cy="197" r="3.5"/>
	<circle class="st1" cx="291.7" cy="319.6" r="3.5"/>
	<circle class="st1" cx="27" cy="227.4" r="3.5"/>
	<circle class="st1" cx="28.7" cy="233.3" r="3.5"/>
	<circle class="st1" cx="556.2" cy="283.7" r="3.5"/>
	<circle class="st1" cx="441.6" cy="108.2" r="3.5"/>
	<circle class="st1" cx="613.7" cy="119.7" r="3.5"/>
	<circle class="st1" cx="605.2" cy="192" r="3.5"/>
	<circle class="st1" cx="588.5" cy="366.5" r="3.5"/>
	<circle class="st1" cx="318" cy="279.3" r="3.5"/>
	<circle class="st1" cx="597" cy="187.5" r="3.5"/>
</g>
</svg>
